<svg xmlns="http://www.w3.org/2000/svg" xmlns:xlink="http://www.w3.org/1999/xlink" xmlns:lucid="lucid" width="2795.9" height="1421.85"><g transform="translate(441 120)" lucid:page-tab-id="0_0"><path d="M-500-500h3000v2000H-500z" fill="#fff"/><path d="M-420 86a6 6 0 0 1 6-6h222a6 6 0 0 1 6 6v102c-39.08-18.04-63.4-18.04-78.16-18.04-23.4 0-54.52 18.04-77.92 18.04-14.5 0-39.08 0-77.92-18.04z" stroke="#282c33" stroke-width="2" fill="#dedeff"/><path d="M-407 95.53a6 6 0 0 1 6-6h222a6 6 0 0 1 6 6v102c-39.08-18.04-63.4-18.04-78.16-18.04-23.4 0-54.52 18.03-77.92 18.03-14.5 0-39.08 0-77.92-18.04z" stroke="#282c33" stroke-width="2" fill="#dedeff"/><path d="M-394 105.06a6 6 0 0 1 6-6h222a6 6 0 0 1 6 6v102c-39.08-18.04-63.4-18.04-78.16-18.04-23.4 0-54.52 18.04-77.92 18.04-14.5 0-39.08 0-77.92-18.04z" stroke="#282c33" stroke-width="2" fill="#dedeff"/><use xlink:href="#a" transform="matrix(1,0,0,1,-389,104.05882352941177) translate(7.833333333333329 31.111111111111114)"/><use xlink:href="#b" transform="matrix(1,0,0,1,-389,104.05882352941177) translate(118.82098765432099 31.111111111111114)"/><use xlink:href="#c" transform="matrix(1,0,0,1,-389,104.05882352941177) translate(169.31481481481484 31.111111111111114)"/><use xlink:href="#d" transform="matrix(1,0,0,1,-389,104.05882352941177) translate(76.29012345679013 57.77777777777778)"/><use xlink:href="#e" transform="matrix(1,0,0,1,-389,104.05882352941177) translate(107.03086419753086 57.77777777777778)"/><path d="M-380 434.24a6 6 0 0 1 6-6h228a6 6 0 0 1 6 6v48a6 6 0 0 1-6 6h-228a6 6 0 0 1-6-6z" fill="none"/><use xlink:href="#f" transform="matrix(1,0,0,1,-380,428.235294117647) translate(49.75308641975309 34.44444444444444)"/><use xlink:href="#g" transform="matrix(1,0,0,1,-380,428.235294117647) translate(102.77777777777777 34.44444444444444)"/><path d="M-260 202.5v72.95M-260 202.56V200M-270.18 257.87L-260 275.1l10.18-17.23" stroke="#3a414a" stroke-width="5" fill="none"/><path d="M-27.71 326a6 6 0 0 1 5.98-6h168a6 6 0 0 1 6 6v82c-30.06-14.7-48.78-14.7-60.1-14.7-18.02 0-41.96 14.7-59.96 14.7-11.15 0-30.05 0-59.93-14.7z" stroke="#282c33" stroke-width="2" fill="#dedeff"/><path d="M-17.71 333.76a6 6 0 0 1 5.98-6h168a6 6 0 0 1 6 6v82c-30.06-14.7-48.78-14.7-60.1-14.7-18.02 0-41.96 14.7-59.96 14.7-11.15 0-30.05 0-59.93-14.7z" stroke="#282c33" stroke-width="2" fill="#dedeff"/><path d="M-7.7 341.53a6 6 0 0 1 6-6h168a6 6 0 0 1 5.98 6v82c-30.06-14.7-48.78-14.7-60.1-14.7-18.02 0-41.96 14.7-59.96 14.7-11.16 0-30.05 0-59.93-14.7z" stroke="#282c33" stroke-width="2" fill="#dedeff"/><use xlink:href="#h" transform="matrix(1,0,0,1,-2.715481171548106,340.52941176470586) translate(9.691358024691368 21.77777777777778)"/><use xlink:href="#c" transform="matrix(1,0,0,1,-2.715481171548106,340.52941176470586) translate(98.4567901234568 21.77777777777778)"/><use xlink:href="#d" transform="matrix(1,0,0,1,-2.715481171548106,340.52941176470586) translate(0.790123456790127 48.44444444444444)"/><use xlink:href="#e" transform="matrix(1,0,0,1,-2.715481171548106,340.52941176470586) translate(31.530864197530864 48.44444444444444)"/><path d="M-157.5 360h92.95M-157.44 360H-160M-82.13 370.18L-64.9 360l-17.23-10.18" stroke="#3a414a" stroke-width="5" fill="none"/><path d="M-200.24 370.66v-29.1l-32.88 28.62h-.72v-28.62l-32.88 28.62V310.3c0-5.03-11.28-10.06-26.16-10.06S-320 305.04-320 310.3V420h120l-.24-49.34zm-92.64-55.57c-10.8 0-19.44-2.64-19.44-5.52 0-2.87 8.64-5.5 19.44-5.5s19.44 2.4 19.44 5.5c-.24 2.88-8.88 5.5-19.44 5.5zm56.64 85.38h-13.2V387.3h13.2v13.18zm-23.28 0h-13.2V387.3h13.2v13.18zm33.6 0V387.3h13.2v13.18h-13.2z" stroke="#000" stroke-opacity="0" fill="#59b4d9"/><path d="M-320 309.62h26.64V420H-320V309.62z" stroke="#000" stroke-opacity="0" fill="#3999c6"/><path d="M-266.96 309.62c0 5.3-12 9.62-26.63 9.62-14.63 0-26.4-4.33-26.4-9.62 0-5.3 12-9.62 26.63-9.62 14.63 0 26.4 4.1 26.4 9.62" stroke="#000" stroke-opacity="0" fill="#fff"/><path d="M-272.24 308.9c0 3.6-9.38 6.25-21.12 6.25s-21.12-2.65-21.12-6.25 9.38-6.25 21.12-6.25 21.12 2.88 21.12 6.25" stroke="#000" stroke-opacity="0" fill="#7fba00"/><path d="M-276.8 312.75c2.88-.96 4.32-2.4 4.32-3.85 0-3.6-9.38-6.25-21.12-6.25s-21.12 2.88-21.12 6.25c.25 1.44 1.9 2.9 4.56 3.85 3.85-1.45 9.84-2.4 16.8-2.4 6.73 0 12.73.95 16.57 2.4" stroke="#000" stroke-opacity="0" fill="#b8d432"/><path d="M-318.56 309.62h50.4c.97 0 1.45.44 1.45 1.43V418.5c0 .98-.5 1.43-1.45 1.43h-50.4c-.97 0-1.45-.45-1.45-1.44V311.04c0-1 .48-1.43 1.44-1.43z" stroke="#000" stroke-opacity="0" stroke-width="0" fill-opacity="0"/><path d="M201.42 357.94l216-314.2M201.45 357.9L200 360M415.85 64l1.37-19.95-18.14 8.42M202.5 360h192.95M202.56 360H200M377.87 370.18L395.1 360l-17.23-10.18M201.16 362.2L397.88 736M201.2 362.27L200 360M380.7 725.16l17 10.5 1-19.98" stroke="#3a414a" stroke-width="5" fill="none"/><path d="M539.87 59.87C529.17 70.47 515.1 76.3 500 76.3c-15.1 0-29.17-5.84-39.87-16.43C449.53 49.17 443.7 35.1 443.7 20c0-15.08 5.84-29.15 16.43-39.85C470.83-30.43 484.9-36.3 500-36.3c15.1 0 29.17 5.87 39.87 16.45C550.47-9.15 556.3 4.92 556.3 20c0 15.1-5.84 29.18-16.43 39.87z" stroke="#000" stroke-opacity="0" fill="#e5e5e5"/><path d="M460.22 59.83c-10.67-10.67-16.54-24.8-16.54-39.8 0-15.1 5.87-29.22 16.54-39.8 10.57-10.66 24.7-16.52 39.8-16.52 15 0 29.13 5.87 39.8 16.54l-79.6 79.6z" stroke="#000" stroke-opacity="0" fill="#fff" fill-opacity=".5"/><path d="M451.25 39.5c-2.46-6.1-3.8-12.7-3.8-19.5 0-11.55 3.78-22.55 10.66-31.6-1.1-.8-2.14-1.7-3.05-2.87-.78-.9-1.4-1.95-1.92-3.05-14.1 17.54-16.82 41.13-8.3 61.12 1.93-1.72 4.08-3.12 6.42-4.1zM478.23-35.9c1.9 1.9 3.33 4.08 4.37 6.4 5.53-1.94 11.4-3.02 17.38-3.02 11.23 0 21.88 3.55 30.8 10.03.93-1.85 2.2-3.53 3.92-4.9v-.03c.34-.28.75-.54 1.1-.8-16.82-12.5-38.7-15.03-57.57-7.67zM548.75.52c2.46 6.1 3.8 12.7 3.8 19.5 0 11.55-3.78 22.55-10.67 31.65 1.13.74 2.16 1.65 3.07 2.8.77.93 1.4 1.97 1.92 3.07 14.1-17.54 16.83-41.13 8.3-61.1-1.93 1.7-4.08 3.1-6.42 4.08zM517.4 69.53c-5.52 1.94-11.4 3.02-17.43 3.02-11.22-.02-21.86-3.57-30.78-10.04-.93 1.87-2.2 3.56-3.92 4.94-.34.28-.7.53-1.03.78 16.8 12.48 38.65 15.03 57.52 7.7-1.9-1.9-3.33-4.1-4.37-6.4z" stroke="#000" stroke-opacity="0" fill="#2999c6"/><path d="M472.8-30.67c5.78 5.78 5.78 15.18 0 20.96-5.82 5.78-15.22 5.78-21 0-5.8-5.82-5.8-15.22 0-21 5.8-5.8 15.2-5.8 21 0v.03z" stroke="#000" stroke-opacity="0" fill="#2999c6"/><path d="M467.43-15.06c2.85-2.85 2.85-7.44 0-10.28-2.82-2.84-7.43-2.84-10.27 0-2.85 2.82-2.85 7.43 0 10.27 2.84 2.85 7.43 2.85 10.27 0" stroke="#000" stroke-opacity="0" fill="#fff"/><path d="M529.75-30.7c5.78-5.78 15.18-5.78 20.97 0 5.78 5.8 5.78 15.22 0 21-5.82 5.78-15.22 5.78-21 0-5.8-5.8-5.8-15.22 0-21h.03z" stroke="#000" stroke-opacity="0" fill="#2999c6"/><path d="M545.36-25.33c-2.83-2.85-7.44-2.85-10.27-.02-2.86 2.85-2.86 7.45-.03 10.28 2.85 2.85 7.44 2.85 10.28.02 2.85-2.85 2.85-7.45 0-10.28" stroke="#000" stroke-opacity="0" fill="#fff"/><path d="M527.2 70.7c-5.78-5.8-5.78-15.2 0-20.97 5.82-5.8 15.22-5.8 21 0 5.8 5.8 5.8 15.2 0 21-5.8 5.78-15.2 5.78-21 0v-.04z" stroke="#000" stroke-opacity="0" fill="#2999c6"/><path d="M532.57 55.08c-2.85 2.85-2.85 7.44 0 10.28 2.83 2.84 7.43 2.84 10.26 0 2.85-2.82 2.85-7.43.02-10.27v-.02c-2.85-2.83-7.45-2.83-10.28 0" stroke="#000" stroke-opacity="0" fill="#fff"/><path d="M470.25 70.72c-5.78 5.78-15.2 5.78-20.97 0-5.78-5.8-5.78-15.2 0-21 5.8-5.78 15.22-5.78 21 0 5.8 5.8 5.8 15.22 0 21h-.03z" stroke="#000" stroke-opacity="0" fill="#2999c6"/><path d="M454.63 65.35c2.84 2.85 7.45 2.85 10.28.02 2.86-2.85 2.86-7.45.03-10.28-2.85-2.86-7.45-2.86-10.28-.02h-.02c-2.83 2.84-2.83 7.44 0 10.27M492.46 12.47L500 35.1l7.54-22.63h-15.08z" stroke="#000" stroke-opacity="0" fill="#fff"/><path d="M525.2 39.56c-1.42-12.78-7.38-23.5-17.68-27.1L500 35.1l-7.52-22.6c-10.05 3.36-16.46 13-17.73 27.1-.25 2.8 1.57 5.24 4.04 5.53.14.05.3.05.45.05h41.5c2.47 0 4.5-2.23 4.5-4.97 0-.23 0-.42-.06-.62z" stroke="#000" stroke-opacity="0" fill="#804998"/><path d="M514.83-.1c0 8.2-6.64 14.83-14.83 14.83-8.2 0-14.83-6.64-14.83-14.83 0-8.18 6.64-14.83 14.83-14.83 8.2 0 14.83 6.65 14.83 14.83z" stroke="#000" stroke-opacity="0" fill="#804998"/><use xlink:href="#i" transform="matrix(1,0,0,1,410,89) translate(46.26944444444447 16.177777777777774)"/><use xlink:href="#j" transform="matrix(1,0,0,1,410,89) translate(27.704320987654356 40.44444444444443)"/><path d="M538.83 329.2c0 27.15-22.14 49.2-49.4 49.2-27.3 0-49.43-22.05-49.43-49.2 0-27.16 22.14-49.2 49.42-49.2 27.27 0 49.4 22.04 49.4 49.2z" stroke="#000" stroke-opacity="0" stroke-width="1.3" fill="#804998"/><path d="M503.57 312.93c5.9 3.05 9.73 9.15 9.73 15.65-1.03 0-2.8.4-3.72 0-1.04-.3-.63-.2-.83-1.73-.1-1.32-.52-2.44-1.04-3.66-2.27-4.9-7.44-8.04-12.83-7.63-5.18.3-9.83 3.86-11.6 8.74-.93 2.65-.4 5.5-1.24 8.14-.93 2.85-2.38 5-4.76 6.7 5.8 2.96 9.73 9.06 9.73 15.67-1.03 0-2.8.42-3.73 0-.93-.3-.62-.1-.72-1.3-.2-1.33-.52-2.55-1.04-3.77-2.06-4.78-6.82-8.04-12.1-8.04-5.07 0-9.73 3.05-11.9 7.62-.52 1.22-.94 2.34-1.15 3.76-.1 1.02.2 1.42-.62 1.73-.83.42-2.8 0-3.83 0 0-6.6 3.83-12.7 9.74-15.65-6.43-4.67-7.05-14.23-1.45-19.72 5.58-5.6 15.1-4.98 19.87 1.43 1.76-3.56 4.34-6.1 7.87-7.93-9.94-7.32-4.56-23.6 7.76-23.6 12.43 0 17.8 16.28 7.87 23.6 1.45.8.73-.3 0 0zm-34.17 24.4c11.3 0 11.3-17.4 0-17.4-11.3-.1-11.3 17.4 0 17.4zm17.6-34.87c0 11.18 17.5 11.18 17.5 0 0-11.3-17.5-11.3-17.5 0zm6.32 57.74l31.17-31 30.95 30.8-31.17 31z" stroke="#000" stroke-opacity="0" stroke-width="1.3" fill="#fff"/><path d="M526.96 345.9c-.43.22-.66.22-1.34.45v22.87c.68.22 1.56.68 2.24 1.33l10.26-8.2c-.22-.46-.22-1.34-.22-2.02 0-.65.23-1.78.45-2.43l-11.4-12zm-16.95 12c.46.65.7 1.78.7 2.66 0 .68-.24 1.55-.46 2.23l10.25 8.2c.45-.45 1.33-.88 2-1.33v-23.32c-.45-.23-.67-.23-.9-.45l-11.6 12z" stroke="#000" stroke-opacity="0" stroke-width="1.3" fill="#59b4d9"/><path d="M524.3 319.9l-35.72 42.23 35.7 28.87L560 362.13l-35.7-42.23zm19.42 46.43c-1.36 0-2.5-.43-3.57-1.35l-10.3 8.46c.23.43.23.92.23 1.56 0 3.13-2.43 5.76-5.8 5.76-3.35 0-5.77-2.42-5.77-5.76 0-.42 0-.92.22-1.35l-10.93-8.4c-.93.65-2 .87-3.15.87-3.14 0-5.78-2.42-5.78-5.76 0-3.13 2.43-5.76 5.78-5.76.93 0 1.8.2 2.72.64l11.35-12.45c-.2-.65-.43-1.57-.43-2.42 0-3.13 2.42-5.83 5.78-5.83 3.35 0 5.78 2.5 5.78 5.83 0 .85-.2 2-.64 2.63l11.14 12.45c.93-.43 2-.64 2.93-.64 3.06 0 5.77 2.43 5.77 5.77.22 3.34-2.5 5.76-5.35 5.76z" stroke="#000" stroke-opacity="0" stroke-width="1.3" fill="#59b4d9"/><use xlink:href="#k" transform="matrix(1,0,0,1,410,400) translate(22.14320987654321 16.177777777777777)"/><use xlink:href="#l" transform="matrix(1,0,0,1,410,400) translate(82.69753086419752 16.177777777777777)"/><path d="M420 785.7h120v67.24c0 2.28-1.8 4.06-3.96 4.06H423.96c-2.16 0-3.96-1.78-3.96-4.06V785.7z" stroke="#000" stroke-opacity="0" fill="url(#m)"/><path d="M424.08 760h111.96c2.16 0 3.96 1.8 3.96 4.04v21.67H420v-21.66c0-2.24 1.8-4.04 3.96-4.04h.12zM434.95 794.63h40.3c1.33 0 2 .67 2 2v20.15c0 1.33-.67 2-2 2h-40.3c-1.33 0-2-.67-2-2v-20.15c0-1.33.67-2 2-2z" stroke="#000" stroke-opacity="0" fill="#0078d4"/><path d="M484.4 794.63h40.3c1.32 0 1.98.67 1.98 2v20.15c0 1.33-.66 2-2 2h-40.3c-1.32 0-1.98-.67-1.98-2v-20.15c0-1.33.66-2 2-2z" stroke="#000" stroke-opacity="0" fill="#fff"/><path d="M434.7 823.63H475c1.34 0 2 .68 2 2v20.15c0 1.33-.66 2-2 2h-40.3c-1.32 0-1.98-.67-1.98-2v-20.14c0-1.33.66-2 2-2zM484.15 823.63h40.3c1.33 0 2 .68 2 2v20.15c0 1.33-.67 2-2 2h-40.3c-1.33 0-2-.67-2-2v-20.14c0-1.33.67-2 2-2z" stroke="#000" stroke-opacity="0" fill="#0078d4"/><use xlink:href="#n" transform="matrix(1,0,0,1,390,866) translate(14.25092592592594 16.177777777777777)"/><use xlink:href="#l" transform="matrix(1,0,0,1,390,866) translate(90.58981481481482 16.177777777777777)"/><path d="M500 161.5v75.77M500 161.54V160M489.82 219.84l10.18 17.2 10.18-17.2" stroke="#3a414a" stroke-width="3" fill="none"/><path d="M602.5 20h92.96M602.56 20H600M677.87 30.18L695.1 20 677.86 9.82" stroke="#3a414a" stroke-width="5" fill="none"/><path d="M740-20V80h140V-20H740zm133.98 93.6H746.16V2.5h127.82v71.1z" stroke="#000" stroke-opacity="0" fill="#2a3282"/><path d="M782.56 41.3h-21.28v22.6h21.28V41.3zM784.1 36.5h-24.36V10.7h24.36v25.8zm-21.28-3.3h18.34V13.9h-18.34v19.3zM820.64 65.5h-24.36V39.7h24.36v25.8zm-21.28-3.3h18.2V42.9h-18.2v19.3zM819.1 12.3h-21.28v22.6h21.28V12.3zM855.64 41.3h-21.28v22.6h21.28V41.3zM857.18 36.5h-24.36V10.7h24.36v25.8zm-21.28-3.3h18.2V13.9h-18.2v19.3z" stroke="#000" stroke-opacity="0" fill="#2a3282"/><use xlink:href="#o" transform="matrix(1,0,0,1,710,89) translate(65.79074074074074 16.177777777777777)"/><path d="M840-24a6 6 0 0 1 6-6h68a6 6 0 0 1 6 6V84a6 6 0 0 1-6 6h-68a6 6 0 0 1-6-6z" fill="none"/><path d="M920 90c-5.52 0-10-4.48-10-10V40c0-5.52-4.48-10-10-10 5.52 0 10-4.48 10-10v-40c0-5.52 4.48-10 10-10" stroke="#282c33" stroke-width="2" fill="none"/><path d="M920-54a6 6 0 0 1 6-6h208a6 6 0 0 1 6 6v168a6 6 0 0 1-6 6H926a6 6 0 0 1-6-6z" fill="none"/><use xlink:href="#p" transform="matrix(1,0,0,1,920,-60) translate(0 41.11111111111111)"/><use xlink:href="#q" transform="matrix(1,0,0,1,920,-60) translate(0 67.77777777777777)"/><use xlink:href="#r" transform="matrix(1,0,0,1,920,-60) translate(0 94.44444444444443)"/><use xlink:href="#q" transform="matrix(1,0,0,1,920,-60) translate(0 121.11111111111111)"/><use xlink:href="#s" transform="matrix(1,0,0,1,920,-60) translate(0 147.77777777777777)"/><use xlink:href="#t" transform="matrix(1,0,0,1,920,-60) translate(108.33333333333334 147.77777777777777)"/><use xlink:href="#u" transform="matrix(1,0,0,1,920,-60) translate(151.54320987654322 147.77777777777777)"/><path d="M780-94a6 6 0 0 1 6-6h228a6 6 0 0 1 6 6v48a6 6 0 0 1-6 6H786a6 6 0 0 1-6-6z" fill="none"/><use xlink:href="#v" transform="matrix(1,0,0,1,780,-100) translate(4.845679012345684 34.44444444444444)"/><use xlink:href="#w" transform="matrix(1,0,0,1,780,-100) translate(155.15432098765433 34.44444444444444)"/><path d="M1142.5 18.5l92.95 1.43" stroke="#3a414a" stroke-width="5" fill="none"/><path d="M1142.6 16.04l-.07 4.95-2.53-.05V16z" stroke="#3a414a" stroke-width=".05" fill="#3a414a"/><path d="M1217.72 29.84l17.37-9.9-17.07-10.46" stroke="#3a414a" stroke-width="5" fill="none"/><path d="M1418.32 9.68c-2.52-5.84-7.84-10.72-14.7-13.76-3.08-10.16-11.9-20.32-24.92-20.32h-1.26c-5.46-3.76-10.78-5.6-16.24-5.6-3.22 0-6.58.72-9.8 2.08-2.52-1.28-5.32-1.92-8.4-1.92-6.72 0-13.02 2.96-16.94 6.48-1.4-.32-2.52-.4-3.92-.4-9.94 0-19.88 7.92-22.54 17.6-8.54 3.04-14.84 8.48-17.78 15.6-2.94 6.96-2.24 14.64 1.68 21.2 3.92 6.56 10.78 10.4 18.48 10.4 2.8 0 5.6-.56 8.26-1.68 4.62 4.08 10.5 6.48 16.1 6.48 1.96 0 3.92-.24 5.74-.8 4.48 3.6 11.48 4.96 17.22 4.96 6.58 0 12.46-1.68 16.24-4.72 2.52 1.12 5.32 1.76 8.12 1.76 7.28 0 14.7-3.68 18.76-8.88 2.24.96 4.62 1.36 7 1.36 7.84 0 15.12-4.88 18.48-12.56 2.66-5.84 2.8-11.84.42-17.28z" stroke="#000" stroke-opacity="0" stroke-width="1.31" fill="#3176bc"/><path d="M1319.5 16.65h-7.1c-.85-3.74-4.34-6.54-8.58-6.54-4.77 0-8.7 3.82-8.7 8.42 0 4.67 3.93 8.4 8.7 8.4 4.13 0 7.63-2.72 8.58-6.46h7.1c.84 0 1.6.72 1.6 1.58V45.2c1.36.28 2.53.5 3.9.57V22.04c0-2.95-2.54-5.4-5.5-5.4zm-15.68 6.83c-2.75 0-5.1-2.23-5.1-4.96s2.35-4.9 5.1-4.9c2.86 0 5.2 2.17 5.2 4.9 0 2.73-2.34 4.96-5.2 4.96zm43.75-5.1v-7.9c0-2.96-2.44-5.34-5.5-5.34h-12.4c-.96 0-1.7-.7-1.7-1.58V-24.9c-.64.5-1.27 1-1.9 1.57-.75-.2-1.28-.3-2.02-.36V3.57c0 2.95 2.54 5.32 5.6 5.32h12.4c.85 0 1.6.72 1.6 1.6v7.9c-3.82.86-6.78 4.17-6.78 8.2 0 4.6 3.92 8.4 8.8 8.4 4.75 0 8.67-3.8 8.67-8.4 0-4.03-2.86-7.34-6.77-8.2zm-1.9 13.08c-2.87 0-5.2-2.16-5.2-4.9 0-2.72 2.33-4.95 5.2-4.95 2.74 0 5.07 2.24 5.07 4.97 0 2.73-2.33 4.9-5.08 4.9zm55.38-21c0-4.6-3.9-8.4-8.68-8.4-4.87 0-8.8 3.8-8.8 8.4 0 4.03 2.87 7.34 6.8 8.2v1.6-.02c0 .87-.75 1.6-1.7 1.6h-15.68V-5.3c0-2.95-2.45-5.4-5.52-5.4h-8.58c-.85-3.73-4.34-6.54-8.48-6.54-4.87 0-8.8 3.74-8.8 8.42 0 4.67 3.93 8.4 8.8 8.4 4.14 0 7.63-2.72 8.48-6.46h8.58c.85 0 1.6.72 1.6 1.58V46.5c1.26.28 2.53.42 3.9.5V25.56h15.68c3.07 0 5.62-2.38 5.62-5.32v-1.52c3.8-.86 6.78-4.24 6.78-8.26zm-50.63-14.3c-2.86 0-5.08-2.23-5.08-4.96 0-2.74 2.23-4.9 5.1-4.9 2.74 0 5.07 2.16 5.07 4.9 0 2.73-2.32 4.96-5.08 4.96zm41.95 19.27c-2.86 0-5.2-2.23-5.2-4.96 0-2.74 2.34-4.9 5.2-4.9 2.75 0 5.08 2.16 5.08 4.9 0 2.73-2.33 4.96-5.08 4.96z" stroke="#000" stroke-opacity="0" stroke-width="1.31" fill="#fff"/><use xlink:href="#x" transform="matrix(1,0,0,1,1250,59) translate(54.61234567901235 16.177777777777777)"/><use xlink:href="#y" transform="matrix(1,0,0,1,1250,59) translate(24.756481481481472 40.44444444444444)"/><use xlink:href="#z" transform="matrix(1,0,0,1,1250,59) translate(87.67006172839504 40.44444444444444)"/><use xlink:href="#A" transform="matrix(1,0,0,1,1250,59) translate(115.75648148148147 40.44444444444444)"/><path d="M1710.56-21.05v11.07l-21.12-6.8V-43H1640v37.94h24.48l2.64 17.12h-18.6V50h49.44V23.6l12.6-6.8v.1H1760v-37.95zm30.96 22.97c-.96 3.35-4.44 5.3-7.8 4.37-1.2-.38-2.16-1.03-3-2.06l-16.8 9.03-3.36 1.76-12.6 6.8-3.36 1.76-15.36 8.26c.96 3.35-.96 6.8-4.32 7.82-3.24.93-6.72-.93-7.68-4.28-.96-3.26.72-6.6 3.84-7.72l-1.08-7.35-1.32-8.27-2.64-17.12-.48-3.25-1.08-7.08c-3.48-.1-6.24-3.07-6-6.5.12-3.45 3-6.15 6.48-6.05 3.48.18 6.12 3.07 6 6.6v.37l15.12 4.84 3.36 1.02 21.12 6.8 3.36 1.1 15.72 5.03c1.32-3.26 5.04-4.75 8.28-3.44 2.88 1.2 4.44 4.45 3.6 7.52z" stroke="#000" stroke-opacity="0" stroke-width=".15" fill="#59b4d9"/><path d="M1729.2.39l-15.3-4.87-3.3-1.06-21.23-6.82-3.25-1.06-16-5.1c-.6 1.1-1.36 1.87-2.48 2.45-.2.1-.38.2-.63.3l1.14 7.4.56 3.3 2.62 17.12 1.25 8.2 1.12 7.08c.43.05.8.1 1.24.24 1.25.32 2.25.95 3.06 1.96l16.6-8.9 3.32-1.77 12.67-6.83 3.3-1.78 15.55-8.33c-.13-.53-.25-1-.25-1.58zm-18.6 9.9l-12.68 6.8v-5.04h-25.04l-2.62-17.1h19.1v-5.68l21.23 6.83z" stroke="#000" stroke-opacity="0" stroke-width=".15" fill="#59b4d9"/><use xlink:href="#B" transform="matrix(1,0,0,1,1610,59) translate(11.49845679012347 16.177777777777777)"/><use xlink:href="#C" transform="matrix(1,0,0,1,1610,59) translate(79.91697530864198 16.177777777777777)"/><use xlink:href="#D" transform="matrix(1,0,0,1,1610,59) translate(29.979320987654333 40.44444444444444)"/><use xlink:href="#E" transform="matrix(1,0,0,1,1610,59) translate(126.48425925925926 40.44444444444444)"/><use xlink:href="#F" transform="matrix(1,0,0,1,1610,59) translate(18.379629629629648 64.71111111111111)"/><use xlink:href="#G" transform="matrix(1,0,0,1,1610,59) translate(96.51604938271605 64.71111111111111)"/><path d="M1502.5 20h92.95M1502.56 20H1500M1577.87 30.18L1595.1 20l-17.23-10.18" stroke="#3a414a" stroke-width="5" fill="none"/><path d="M760 326.8h22.92v23.14H760V326.8zM760 296.75h22.92v23.13H760v-23.13zM760 356.88h22.92V380H760v-23.13zM789.8 356.88h22.9V380h-22.9v-23.13zM819.58 356.88h22.92V380h-22.92v-23.13z" stroke="#000" stroke-opacity="0" fill="#a0a1a2"/><path d="M829.9 269c-22.46 0-40.1 17.8-40.1 40.47v40.47h40.1c22.45 0 40.1-17.8 40.1-40.47 0-22.66-17.65-40.47-40.1-40.47z" stroke="#000" stroke-opacity="0" fill="#0072c6"/><path d="M805.83 303.7h6.88v25.43h-6.87V303.7zM821.88 310.63h6.87v18.5h-6.88v-18.5zM837.92 294.44h6.87v34.69h-6.88v-34.7z" stroke="#000" stroke-opacity="0" fill="#fff"/><path d="M761.66 298.5v79.65h79.26l.2-34.67 25.25-32.75-9.95-25.2-25.03-13.73-22.73 10.42-14.03 15.95z" stroke="#000" stroke-opacity="0" stroke-width="0" fill-opacity="0"/><use xlink:href="#H" transform="matrix(1,0,0,1,730,389) translate(50.22901234567902 16.177777777777777)"/><use xlink:href="#I" transform="matrix(1,0,0,1,730,389) translate(31.15833333333333 40.44444444444444)"/><path d="M602.5 360h112.96M602.56 360H600M697.87 370.18L715.1 360l-17.23-10.18" stroke="#3a414a" stroke-width="5" fill="none"/><path d="M820.47 239.12l90.9-172.15M820.48 239.1l-.48.9" stroke="#3a414a" stroke-width="2" fill="none"/><path d="M918.5 53.47l-2.57 14.78-8.2-4.33z" stroke="#3a414a" stroke-width="2" fill="#fff"/><path d="M884 284c-13.25 0-24-10.75-24-24 0-10.6 6.5-19.55 16.58-22.82C876 206 916 200 932 212c8-18 48-12 48 6 24-6 48 18 32 48 16 24 0 54-32 42-8 15.6-40 15.6-48 0-16 12-48 6-48-24z" stroke="#282c33" stroke-width="2" fill="#fff"/><use xlink:href="#J" transform="matrix(1,0,0,1,865,205) translate(12.977222222222247 40.01)"/><use xlink:href="#K" transform="matrix(1,0,0,1,865,205) translate(5.671666666666676 64.00999999999999)"/><use xlink:href="#L" transform="matrix(1,0,0,1,865,205) translate(94.3938888888889 64.00999999999999)"/><use xlink:href="#M" transform="matrix(1,0,0,1,865,205) translate(56.58833333333334 88.00999999999999)"/><path d="M902.5 360h132.95M902.56 360H900M1017.87 370.18L1035.1 360l-17.23-10.18" stroke="#3a414a" stroke-width="5" fill="none"/><path d="M1089.6 350.3h16.8v52.8h-16.8v-52.8zM1111.2 371.97h16.8v31.14h-16.8v-31.13zM1154.4 336h16.8v67.1h-16.8V336zM1176 364.75h16.8v38.47H1176v-38.47zM1132.8 324.03h16.8v79.08h-16.8v-79.07z" stroke="#000" stroke-opacity="0" fill="#00188f"/><path d="M1082.4 300V412.8H1200v-4.73h-112.8V300h-4.8z" stroke="#000" stroke-opacity="0" fill="#00188f"/><path d="M1080 300h117.6v112.7H1080V300z" stroke="#000" stroke-opacity="0" fill-opacity="0"/><use xlink:href="#N" transform="matrix(1,0,0,1,1050,421.8084606345476) translate(69.24413580246915 16.177777777777777)"/><path d="M1242.5 359.48l112.95.5M1242.56 359.48H1240M1337.83 370.08l17.26-10.1-17.18-10.26" stroke="#3a414a" stroke-width="5" fill="none"/><path d="M1538.32 350.68c-2.52-5.84-7.84-10.72-14.7-13.76-3.08-10.16-11.9-20.32-24.92-20.32h-1.26c-5.46-3.76-10.78-5.6-16.24-5.6-3.22 0-6.58.72-9.8 2.08-2.52-1.28-5.32-1.92-8.4-1.92-6.72 0-13.02 2.96-16.94 6.48-1.4-.32-2.52-.4-3.92-.4-9.94 0-19.88 7.92-22.54 17.6-8.54 3.04-14.84 8.48-17.78 15.6-2.94 6.96-2.24 14.64 1.68 21.2 3.92 6.56 10.78 10.4 18.48 10.4 2.8 0 5.6-.56 8.26-1.68 4.62 4.08 10.5 6.48 16.1 6.48 1.96 0 3.92-.24 5.74-.8 4.48 3.6 11.48 4.96 17.22 4.96 6.58 0 12.46-1.68 16.24-4.72 2.52 1.12 5.32 1.76 8.12 1.76 7.28 0 14.7-3.68 18.76-8.88 2.24.96 4.62 1.36 7 1.36 7.84 0 15.12-4.88 18.48-12.56 2.66-5.84 2.8-11.84.42-17.28z" stroke="#000" stroke-opacity="0" stroke-width="1.31" fill="#3176bc"/><path d="M1439.5 357.65h-7.1c-.85-3.74-4.34-6.54-8.58-6.54-4.77 0-8.7 3.82-8.7 8.42 0 4.67 3.93 8.4 8.7 8.4 4.13 0 7.63-2.72 8.58-6.46h7.1c.84 0 1.6.72 1.6 1.58v23.15c1.36.28 2.53.5 3.9.57v-23.73c0-2.95-2.54-5.4-5.5-5.4zm-15.68 6.83c-2.75 0-5.1-2.23-5.1-4.96s2.35-4.9 5.1-4.9c2.86 0 5.2 2.17 5.2 4.9 0 2.73-2.34 4.96-5.2 4.96zm43.75-5.1v-7.9c0-2.96-2.44-5.34-5.5-5.34h-12.4c-.96 0-1.7-.7-1.7-1.58V316.1c-.64.5-1.27 1-1.9 1.57-.75-.2-1.28-.3-2.02-.36v27.26c0 2.95 2.54 5.32 5.6 5.32h12.4c.85 0 1.6.72 1.6 1.6v7.9c-3.82.86-6.78 4.17-6.78 8.2 0 4.6 3.92 8.4 8.8 8.4 4.75 0 8.67-3.8 8.67-8.4 0-4.03-2.86-7.34-6.77-8.2zm-1.9 13.08c-2.87 0-5.2-2.16-5.2-4.9 0-2.72 2.33-4.95 5.2-4.95 2.74 0 5.07 2.24 5.07 4.97 0 2.73-2.33 4.9-5.08 4.9zm55.38-21c0-4.6-3.9-8.4-8.68-8.4-4.87 0-8.8 3.8-8.8 8.4 0 4.03 2.87 7.34 6.8 8.2v1.58c0 .87-.75 1.6-1.7 1.6h-15.68V335.7c0-2.95-2.45-5.4-5.52-5.4h-8.58c-.85-3.73-4.34-6.54-8.48-6.54-4.87 0-8.8 3.74-8.8 8.42 0 4.67 3.93 8.4 8.8 8.4 4.14 0 7.63-2.72 8.48-6.46h8.58c.85 0 1.6.72 1.6 1.58v51.77c1.26.28 2.53.42 3.9.5v-21.44h15.68c3.07 0 5.62-2.37 5.62-5.3v-1.52c3.8-.87 6.78-4.25 6.78-8.27zm-50.63-14.3c-2.86 0-5.08-2.23-5.08-4.96 0-2.74 2.23-4.9 5.1-4.9 2.74 0 5.07 2.16 5.07 4.9 0 2.73-2.32 4.96-5.08 4.96zm41.95 19.27c-2.86 0-5.2-2.23-5.2-4.96 0-2.74 2.34-4.9 5.2-4.9 2.75 0 5.08 2.16 5.08 4.9 0 2.73-2.33 4.96-5.08 4.96z" stroke="#000" stroke-opacity="0" stroke-width="1.31" fill="#fff"/><use xlink:href="#O" transform="matrix(1,0,0,1,1370,400) translate(25.430555555555557 16.177777777777777)"/><use xlink:href="#P" transform="matrix(1,0,0,1,1370,400) translate(119.6324074074074 16.177777777777777)"/><path d="M1017.05 235.23l.45-.2 1-.45 1.42-.54 2.03-.68 3.05-.88 4.85-1.18 8.26-1.65 15.2-2.37 29.72-3.37 56.75-4.04 87.26-2.66 96.27 1 83.32 4.3 64.85 6.07 49 6.66 37.1 6.64 28.46 6.34 22.16 5.93 17.54 5.48 14.1 5.08 11.52 4.7 9.5 4.33 7.93 4.05 6.7 3.77 5.7 3.53 4.6 3.13" stroke="#3a414a" stroke-width="2" stroke-linejoin="round" fill="none"/><path d="M1017.53 236.07l-1.05.56-.26-.8-.45-1.04.84-.45z" stroke="#3a414a" stroke-width=".05" fill="#3a414a"/><path d="M1697.5 297.93l-13.92-5.56 5.93-7.13z" stroke="#3a414a" stroke-width="2" fill="#fff"/><path d="M1289.64 573.66l-19.08 16.1-.72-.7v18.56H1380v-35.95l-28.68-16.33-33.72 42.53-27.96-24.2z" stroke="#000" stroke-opacity="0" fill="#00188f"/><path d="M1278.6 542.88l-8.76 12.46v23.96l19.8-17.15 25.08 21.85 33.24-41.12 32.04 18.8v-49.7l-30.84-7.05-39.72 46.3-30.84-8.46z" stroke="#000" stroke-opacity="0" fill="#00188f"/><path d="M1260 500V617.48h119.88v-4.93h-114.96V500H1260z" stroke="#000" stroke-opacity="0" fill="#00188f"/><path d="M1260 500h119.88v117.5H1260V500z" stroke="#000" stroke-opacity="0" fill-opacity="0"/><use xlink:href="#Q" transform="matrix(1,0,0,1,1230,626.4886794761962) translate(48.05 14.4)"/><path d="M1697.65 440.84l-273.37 97.63M1697.6 440.86l2.4-.86M1437.4 522.97l-12.78 15.38 19.64 3.8M1238.23 498.23l-55.02-55.02M1238.2 498.2l1.8 1.8M1202.84 448.45l-19.37-4.98 4.98 19.37" stroke="#3a414a" stroke-width="5" fill="none"/><path d="M1803.5 308.4h-5.23v88.7h-65.18v-88.7h-5.23c-4.48 0-7.87 3.73-7.87 7.8v88.57c0 4.44 3.66 7.8 7.87 7.8h75.62c4.38 0 7.77-3.72 7.77-7.8v-88.44c.28-4.2-3.4-7.92-7.78-7.92z" stroke="#000" stroke-opacity="0" fill="#00188f"/><path d="M1785.55 303.5h-9.16v-3.13c0-4.08-3.4-7.44-7.6-7.44h-5.96c-4.12 0-7.5 3.36-7.5 7.44v3.12h-9.16c-3.1 0-6.04 2.15-7.05 4.9h22.98v-5.15h7.8v5.16h22.97c-1.37-2.75-4.03-4.9-7.32-4.9z" stroke="#000" stroke-opacity="0" fill="#00188f"/><path d="M1792.87 308.4h-22.98v2.65H1762v-2.64h-22.98c-.27.85-.46 1.93-.46 2.9v7.67h54.84v-7.56c-.1-1.07-.37-2.15-.55-3zM1787 338.4c-.72-.47-1.82-.47-2.28.37l-25.8 34.08-13.38-14.28c-.46-.84-1.56-.84-2.1-.36l-5.68 4.93c-.46.48-.46 1.56 0 2.16l21.15 23.75 34.15-43.8c.46-.84.46-1.56-.27-2.4l-5.77-4.44z" stroke="#000" stroke-opacity="0" fill="#00188f"/><path d="M1720.28 292.8v120h91.27v-120h-91.27zm78.27 104.4h-65.18v-88.8h28.65v-5.15h7.78v5.16h28.75v88.8z" stroke="#000" stroke-opacity="0" fill-opacity="0"/><path d="M1761.93 303.25h7.87v5.16h-7.87v-5.15z" stroke="#000" stroke-opacity="0" fill-opacity="0"/><use xlink:href="#R" transform="matrix(1,0,0,1,1690,421.8084606345476) translate(28.899074074074086 16.177777777777777)"/><path d="M1582.5 360l112.95.5M1582.56 360H1580M1677.83 370.6l17.26-10.1-17.18-10.25" stroke="#3a414a" stroke-width="5" fill="none"/><path d="M1331.04 442.6a19.48 19.48 0 0 1 10.96-3.37h96a19.48 19.48 0 0 1 10.96 3.38l26.08 17.76a4.08 4.08 0 0 1 0 6.75l-26.08 17.76a19.48 19.48 0 0 1-10.96 3.38h-96a19.48 19.48 0 0 1-10.96-3.38l-26.08-17.75a4.08 4.08 0 0 1 0-6.74z" stroke="#282c33" stroke-width="2" fill="#fff"/><use xlink:href="#S" transform="matrix(1,0,0,1,1305,444.235294117647) translate(28.30746913580247 25.09027777777778)"/><path d="M582.5 800h132.96M582.56 800H580M697.87 810.18L715.1 800l-17.23-10.18" stroke="#3a414a" stroke-width="5" fill="none"/><path d="M825.6 737L760 841.34l82.1-31.93-16.5-72.4z" stroke="#000" stroke-opacity="0" stroke-width=".67" fill="#3999c6"/><path d="M812.32 758.12L853 857l-27.42-120-13.26 21.12z" stroke="#000" stroke-opacity="0" stroke-width=".67" fill="#59b4d9"/><path d="M809.96 821.93l24.66-9.6L853 857l-43.04-35.07z" stroke="#000" stroke-opacity="0" stroke-width=".67" fill="#0072c6"/><use xlink:href="#T" transform="matrix(1,0,0,1,730,866) translate(29.370987654320984 16.177777777777777)"/><path d="M902 800h234.36M902.05 800H900M1118.86 810.18l17.2-10.18-17.2-10.18" stroke="#3a414a" stroke-width="4" fill="none"/><path d="M1260 823.03c0 4.52-4.32 8.22-9.6 8.22h-60.8c-5.28 0-9.6-3.7-9.6-8.22v-52.06c0-4.52 4.32-8.22 9.6-8.22h60.8c5.28 0 9.6 3.7 9.6 8.22v52.06z" stroke="#000" stroke-opacity="0" stroke-width="3" fill="#59b4d9"/><path d="M1202.4 831.25h-12.8c-5.3 0-9.6-3.7-9.6-8.22v-52.06c0-4.52 4.3-8.22 9.6-8.22h54.4l-41.6 68.5z" stroke="#000" stroke-opacity="0" stroke-width="3" fill="#fff" fill-opacity=".15"/><path d="M1205.6 815.27v-36.54l34.08 18.3-34.08 18.24z" stroke="#000" stroke-opacity="0" stroke-width="3" fill="#fff"/><use xlink:href="#U" transform="matrix(1,0,0,1,1150,840.25) translate(45.55 14.4)"/><use xlink:href="#V" transform="matrix(1,0,0,1,1150,840.25) translate(16.700000000000003 36)"/><path d="M1208.7 974.72c-14.2 0-25.7 11.6-25.7 26 0 14.32 11.5 26 25.7 26 14.3 0 25.7-11.68 25.7-26 0-14.4-11.4-26-25.7-26zm0 47.04c-11.5 0-20.7-9.44-20.7-21.2 0-11.6 9.4-21.12 20.9-21.12 11.5 0 20.8 9.52 20.8 21.12-.1 11.76-9.5 21.2-21 21.2z" stroke="#000" stroke-opacity="0" fill="#2a3282"/><path d="M1267.1 960H1198.2c-1.4.16-2.6 1.28-2.6 2.96v11.76c2.1-.96 4.2-1.84 6.5-2.48v-5.68h61.5v40.88h-26.7c-.5 2.24-1.3 4.4-2.5 6.48h32.7c1.6 0 2.9-1.28 2.9-2.88v-48.08c0-1.68-1.3-2.96-2.9-2.96zM1191.6 1018c-1-.96-2.4-.96-3.4 0l-1.8 1.84c-1.3-.16-2.4.16-3.4 1.12l-11.8 11.92c-1.6 1.6-1.6 4.24 0 5.92 1.6 1.6 4.2 1.6 5.8 0l11.8-11.92c1-1.04 1.3-2.32 1.2-3.44l1.7-1.84c.9-.96.9-2.56-.1-3.6z" stroke="#000" stroke-opacity="0" fill="#2a3282"/><path d="M1255.9 989.6l-4.2-8.72-7.6 7.68-7.7-15.68-6.3 9.68c.6.64 1.1 1.44 1.7 2.08l4.2-6.32 7.5 14.88 7.6-7.68 3.4 6.64h4.6v-2.56h-3.2zM1223.4 989.12l-9.5 15.36-10.3-14.4-7.8 11.92h-5.7c0 1.6.7 3.12 1.2 4.56h6.8l5.6-8.64 10.2 14.72 12-19.12c-.5-1.52-1.3-3.12-2.5-4.4z" stroke="#000" stroke-opacity="0" fill="#2a3282"/><use xlink:href="#W" transform="matrix(1,0,0,1,1140,1049) translate(23.549999999999997 14.4)"/><use xlink:href="#X" transform="matrix(1,0,0,1,1140,1049) translate(66.55 14.4)"/><path d="M1231 1155.7c0 8.65-6.74 15.65-15.04 15.65-8.3 0-15.06-7-15.06-15.64 0-8.7 6.75-15.7 15.06-15.7 8.3 0 15.05 7 15.05 15.7m-4.4 19.6l-10.64 15.85-10.64-15.86H1190v39.16h51.92v-39.17z" stroke="#000" stroke-opacity="0" stroke-width="3" fill="#59b4d9"/><path d="M1259.5 1206.98l-7.9-8.23-13.98-5.6-4.38 7.1-5.87 4.88h-7.16l2.25 4.74h8.5c6.18 10.08 14.33 18.13 14.33 18.13s8.1-5.58 14.32-15.4h2.86c1.12-1.65 1.88-3.18 2.5-5.1l-5.45-.52z" stroke="#000" stroke-opacity="0" stroke-width="3" fill="#fff"/><path d="M1270 1208.86h-8.78l-2.23 4.75h8.7z" stroke="#000" stroke-opacity="0" stroke-width="3" fill="#fff"/><path d="M1255.36 1186.46c-4.33 0-8.04 2.84-9.87 6.93-1.85-4.1-5.56-6.94-9.88-6.94-6.16 0-11.14 5.66-11.14 12.6 0 1.55.24 3.13.6 4.7h-5.58l1.46 3.04h11.46l6.4-10.26 7.42 15.97 7.05-10.25 5.16 6.6h6.06c1.22-3.06 1.97-6.34 1.97-9.78 0-6.95-5-12.6-11.14-12.6z" stroke="#000" stroke-opacity="0" stroke-width="3" fill="#dd5900"/><path d="M1268.55 1211.92h-11.47l-3.66-4.64-7.7 11.2-7.27-15.7-4.4 7.1h-6.62c5.76 11.52 18.05 21.37 18.05 21.37s9.66-6.43 15.87-16.26h5.72l1.48-3.08z" stroke="#000" stroke-opacity="0" stroke-width="3" fill="#ba141a"/><path d="M1190 1175.3l17.34-8.8-4.4-9.6 3.3-12.06 9.15-3.05 11.93 5.44 3.68 8.43-5.18 10.17-1.2 1.1 17.3 8.35v39.16H1190z" stroke="#000" stroke-opacity="0" stroke-width="0" fill-opacity="0"/><use xlink:href="#Y" transform="matrix(1,0,0,1,1160,1240.25) translate(29.549999999999997 14.4)"/><use xlink:href="#Z" transform="matrix(1,0,0,1,1160,1240.25) translate(36.55 36)"/><path d="M901.66 801.1L1136.96 958M901.7 801.14L900 800M1116.76 956.74l19.97 1.08-8.67-18.02M901.2 801.6l256.6 335.5M901.25 801.63L900 800M1139.07 1129.4l18.54 7.48-2.36-19.86" stroke="#3a414a" stroke-width="4" fill="none"/><path d="M1320 760a6 6 0 0 1 6-6h68a6 6 0 0 1 6 6v465.25a6 6 0 0 1-6 6h-68a6 6 0 0 1-6-6z" fill="none"/><path d="M1320 1231.25c5.52 0 10-4.48 10-10v-218.63c0-5.52 4.48-10 10-10-5.52 0-10-4.47-10-10V764c0-5.52-4.48-10-10-10" stroke="#282c33" stroke-width="3" fill="none"/><path d="M1351.63 992.68l103.82.36M1351.7 992.68l-5.57-.02M1437.84 1003.16l17.25-10.12-17.2-10.24" stroke="#3a414a" stroke-width="5" fill="none"/><path d="M1560.2 975.6c-.3 0-.5-.06-.83-.22L1508 948.9c-.43-.27-.75-.7-.75-1.2s.32-.96.74-1.18l51.05-26.35c.53-.23 1.06-.23 1.6 0L1612 946.7c.42.2.74.7.74 1.16 0 .55-.32 1-.74 1.22l-51.07 26.3c-.2.16-.52.22-.74.22" stroke="#000" stroke-opacity="0" fill="#3999c6"/><path d="M1552.8 1040c-.28 0-.55-.08-.83-.16l-51.2-26.47c-.5-.25-.77-.66-.77-1.15V959.2c0-.5.27-1 .76-1.24.5-.24 1.1-.24 1.58 0l51.2 26.47c.5.25.77.66.77 1.15v53.02c0 .5-.26 1-.75 1.24-.27.08-.5.16-.76.16M1567.3 1040c-.28 0-.56-.08-.83-.16-.5-.25-.76-.74-.76-1.23V986c0-.5.28-.98.77-1.23l51.2-26.44c.48-.23 1.08-.23 1.57 0 .5.26.76.75.76 1.24v52.63c0 .5-.27.98-.76 1.23l-51.2 26.44c-.2.08-.48.16-.75.16" stroke="#000" stroke-opacity="0" fill="#59b4d9"/><path d="M1567.3 1040c-.28 0-.56-.08-.83-.16-.5-.25-.76-.74-.76-1.23V986c0-.5.28-.98.77-1.23l51.2-26.44c.48-.23 1.08-.23 1.57 0 .5.26.76.75.76 1.24v52.63c0 .5-.27.98-.76 1.23l-51.2 26.44c-.2.08-.48.16-.75.16" stroke="#000" stroke-opacity="0" fill="#fff" fill-opacity=".5"/><path d="M1509.62 947.26l49.93-25.73 50.5 25.5 8.2 12.23-.24 52.75-49.45 25.86-16.13.12-50.63-26.1-.48-52.74z" stroke="#000" stroke-opacity="0" stroke-width="0" fill-opacity="0"/><g><use xlink:href="#aa" transform="matrix(1,0,0,1,1470,1049) translate(15.908024691358037 16.177777777777777)"/><use xlink:href="#ab" transform="matrix(1,0,0,1,1470,1049) translate(83.25925925925927 16.177777777777777)"/></g><path d="M1906.3 959.63l1.23 1.28 5.93-5.1 10.1-16.46-2.7-2.66-15.8 10.55-4.7 6.26 1.12 1.15-31.36 32.35-6.38-6.73-7.17 7.42c.45 3.94-.67 7.4-3.36 10.3-2.57 2.8-6.04 4.07-9.85 3.6l-31.8 32.6 17.7 18.42 31.58-32.8c-.45-3.95.78-7.55 3.58-10.33 2.58-2.8 6.06-4.07 9.87-3.6l7.16-7.42-6.5-6.73z" stroke="#000" stroke-opacity="0" stroke-width="3.33" fill="#00abec"/><path d="M1903.43 1043.02c.2.23.36.4.56.58 4.55 4.23 11.67 4 15.98-.58 2.3-2.4 3.43-5.26 3.33-8.58-.04-3.33-1.12-6.2-3.32-8.65l-35.45-36.42-3.33 3.6 6.45 6.7-2.87 2.64-7.22 7.44-.92.9-1.44-.2c-1.13 0-2.05.04-3.12.2zM1856.64 940.5c-6.3-6.73-14.98-9.3-23.83-7.13L1846.7 948l-3.8 14.06-13.92 3.6-13.7-14.56c-2.44 9-.28 17.9 6.07 24.72 6.35 6.77 15.15 9.3 24.07 6.9l.46.45 6.35 6.82c.24-.75.36-1.38.3-2.13l.06-1.2-.46-.98 10.95-11.08 1.87 2.18 4.25 4.6 3.38-3.57-10.14-11.2c3.04-9.4.94-18.92-5.76-26.14z" stroke="#000" stroke-opacity="0" stroke-width="3.33" fill="#525252" fill-opacity=".8"/><path d="M1813.33 1034.5l31.94-31.5 9.68-2.68 2.58-5.33-7.75-9.98-4.3-4.4-14.73-2.2-13.12-15.42-1.3-7.07 13.02 12.75 14.52-4.06 5.16-17.27-12.58-13.33 12.8 3.83 8.28 6.95 4.4 12.75-1.6 11.36 15.7 14.04 28.28-28.4-1.72-2.2 18.3-13.45-13.13 19.58-2.37-1.5-26.56 28.62 40.1 43 .87 11.48-7.2 3.36-5.4-1.05-38.92-39.53-7.42 6.14-3 8.94.2 2.66-28.6 29.33z" stroke="#000" stroke-opacity="0" stroke-width="0" fill-opacity="0"/><g><use xlink:href="#ac" transform="matrix(1,0,0,1,1781.545,1061.625) translate(24.294135802469157 16.177777777777777)"/><use xlink:href="#ad" transform="matrix(1,0,0,1,1781.545,1061.625) translate(105.07067901234566 16.177777777777777)"/></g><path d="M1662.5 1000h112.95M1662.56 1000H1660M1757.87 1010.18l17.22-10.18-17.23-10.18" stroke="#3a414a" stroke-width="5" fill="none"/><path d="M1880 938.63a6 6 0 0 1 6-6h68a6 6 0 0 1 6 6v108a6 6 0 0 1-6 6h-68a6 6 0 0 1-6-6z" fill="none"/><path d="M1960 1052.63c-5.52 0-10-4.48-10-10v-40c0-5.53-4.48-10-10-10 5.52 0 10-4.48 10-10v-40c0-5.53 4.48-10 10-10" stroke="#282c33" stroke-width="2" fill="none"/><path d="M1960 908.63a6 6 0 0 1 6-6h88a6 6 0 0 1 6 6v168a6 6 0 0 1-6 6h-88a6 6 0 0 1-6-6z" fill="none"/><g><use xlink:href="#ae" transform="matrix(1,0,0,1,1960,902.625) translate(0 41.11111111111111)"/><use xlink:href="#q" transform="matrix(1,0,0,1,1960,902.625) translate(0 67.77777777777777)"/><use xlink:href="#af" transform="matrix(1,0,0,1,1960,902.625) translate(0 94.44444444444443)"/><use xlink:href="#q" transform="matrix(1,0,0,1,1960,902.625) translate(0 121.11111111111111)"/><use xlink:href="#ag" transform="matrix(1,0,0,1,1960,902.625) translate(0 147.77777777777777)"/></g><path d="M2082.5 1000h112.95M2082.56 1000H2080M2177.87 1010.18l17.22-10.18-17.23-10.18" stroke="#3a414a" stroke-width="5" fill="none"/><path d="M2323.5 948.23h-5.23v88.67h-65.18v-88.68h-5.23c-4.48 0-7.87 3.73-7.87 7.8v88.57c0 4.43 3.66 7.8 7.87 7.8l75.62-.02c4.38 0 7.77-3.72 7.77-7.8v-88.43c.28-4.2-3.4-7.92-7.78-7.92z" stroke="#000" stroke-opacity="0" fill="#00188f"/><path d="M2305.55 943.3h-9.16v-3.12c0-4.07-3.4-7.43-7.6-7.43h-5.96c-4.12 0-7.5 3.36-7.5 7.43v3.13h-9.16c-3.1 0-6.04 2.17-7.05 4.93h22.98v-5.16h7.8v5.15h22.97c-1.37-2.75-4.03-4.92-7.32-4.92z" stroke="#000" stroke-opacity="0" fill="#00188f"/><path d="M2312.87 948.23h-22.98v2.63H2282v-2.63h-22.98c-.27.84-.46 1.9-.46 2.88v7.68h54.84v-7.55c-.1-1.1-.37-2.16-.55-3zM2307 978.23c-.72-.5-1.82-.5-2.28.36l-25.8 34.06-13.38-14.27c-.46-.86-1.55-.86-2.1-.38l-5.68 4.93c-.46.47-.46 1.55 0 2.15l21.15 23.76 34.15-43.8c.46-.83.46-1.55-.27-2.4l-5.77-4.43z" stroke="#000" stroke-opacity="0" fill="#00188f"/><path d="M2240.28 932.63v120h91.26v-120h-91.26zm78.27 104.4h-65.18v-88.8h28.65v-5.16h7.78v5.15h28.75v88.8z" stroke="#000" stroke-opacity="0" fill-opacity="0"/><path d="M2281.93 943.07h7.87v5.15h-7.87v-5.15z" stroke="#000" stroke-opacity="0" fill-opacity="0"/><g><use xlink:href="#R" transform="matrix(1,0,0,1,2210,1061.625) translate(28.899074074074086 16.177777777777777)"/></g><defs><path fill="#3a414a" d="M197 0v-115H63V0H30v-248h33v105h134v-105h34V0h-34" id="ah"/><path fill="#3a414a" d="M141-36C126-15 110 5 73 4 37 3 15-17 15-53c-1-64 63-63 125-63 3-35-9-54-41-54-24 1-41 7-42 31l-33-3c5-37 33-52 76-52 45 0 72 20 72 64v82c-1 20 7 32 28 27v20c-31 9-61-2-59-35zM48-53c0 20 12 33 32 33 41-3 63-29 60-74-43 2-92-5-92 41" id="ai"/><path fill="#3a414a" d="M135-143c-3-34-86-38-87 0 15 53 115 12 119 90S17 21 10-45l28-5c4 36 97 45 98 0-10-56-113-15-118-90-4-57 82-63 122-42 12 7 21 19 24 35" id="aj"/><path fill="#3a414a" d="M106-169C34-169 62-67 57 0H25v-261h32l-1 103c12-21 28-36 61-36 89 0 53 116 60 194h-32v-121c2-32-8-49-39-48" id="ak"/><path fill="#3a414a" d="M96-169c-40 0-48 33-48 73s9 75 48 75c24 0 41-14 43-38l32 2c-6 37-31 61-74 61-59 0-76-41-82-99-10-93 101-131 147-64 4 7 5 14 7 22l-32 3c-4-21-16-35-41-35" id="al"/><path fill="#3a414a" d="M24-231v-30h32v30H24zM24 0v-190h32V0H24" id="am"/><path fill="#3a414a" d="M117-194c89-4 53 116 60 194h-32v-121c0-31-8-49-39-48C34-167 62-67 57 0H25l-1-190h30c1 10-1 24 2 32 11-22 29-35 61-36" id="an"/><path fill="#3a414a" d="M177-190C167-65 218 103 67 71c-23-6-38-20-44-43l32-5c15 47 100 32 89-28v-30C133-14 115 1 83 1 29 1 15-40 15-95c0-56 16-97 71-98 29-1 48 16 59 35 1-10 0-23 2-32h30zM94-22c36 0 50-32 50-73 0-42-14-75-50-75-39 0-46 34-46 75s6 73 46 73" id="ao"/><g id="a"><use transform="matrix(0.06172839506172839,0,0,0.06172839506172839,0,0)" xlink:href="#ah"/><use transform="matrix(0.06172839506172839,0,0,0.06172839506172839,15.987654320987653,0)" xlink:href="#ai"/><use transform="matrix(0.06172839506172839,0,0,0.06172839506172839,28.333333333333332,0)" xlink:href="#aj"/><use transform="matrix(0.06172839506172839,0,0,0.06172839506172839,39.44444444444444,0)" xlink:href="#ak"/><use transform="matrix(0.06172839506172839,0,0,0.06172839506172839,51.79012345679012,0)" xlink:href="#al"/><use transform="matrix(0.06172839506172839,0,0,0.06172839506172839,62.90123456790123,0)" xlink:href="#ak"/><use transform="matrix(0.06172839506172839,0,0,0.06172839506172839,75.24691358024691,0)" xlink:href="#am"/><use transform="matrix(0.06172839506172839,0,0,0.06172839506172839,80.12345679012346,0)" xlink:href="#an"/><use transform="matrix(0.06172839506172839,0,0,0.06172839506172839,92.46913580246914,0)" xlink:href="#ao"/></g><path fill="#3a414a" d="M233-177c-1 41-23 64-60 70L243 0h-38l-65-103H63V0H30v-248c88 3 205-21 203 71zM63-129c60-2 137 13 137-47 0-61-80-42-137-45v92" id="ap"/><path fill="#3a414a" d="M206 0h-36l-40-164L89 0H53L-1-190h32L70-26l43-164h34l41 164 42-164h31" id="aq"/><g id="b"><use transform="matrix(0.06172839506172839,0,0,0.06172839506172839,0,0)" xlink:href="#ap"/><use transform="matrix(0.06172839506172839,0,0,0.06172839506172839,15.987654320987653,0)" xlink:href="#ai"/><use transform="matrix(0.06172839506172839,0,0,0.06172839506172839,28.333333333333332,0)" xlink:href="#aq"/></g><path fill="#3a414a" d="M30-248c118-7 216 8 213 122C240-48 200 0 122 0H30v-248zM63-27c89 8 146-16 146-99s-60-101-146-95v194" id="ar"/><path fill="#3a414a" d="M59-47c-2 24 18 29 38 22v24C64 9 27 4 27-40v-127H5v-23h24l9-43h21v43h35v23H59v120" id="as"/><g id="c"><use transform="matrix(0.06172839506172839,0,0,0.06172839506172839,0,0)" xlink:href="#ar"/><use transform="matrix(0.06172839506172839,0,0,0.06172839506172839,15.987654320987653,0)" xlink:href="#ai"/><use transform="matrix(0.06172839506172839,0,0,0.06172839506172839,28.333333333333332,0)" xlink:href="#as"/><use transform="matrix(0.06172839506172839,0,0,0.06172839506172839,34.50617283950617,0)" xlink:href="#ai"/></g><path fill="#3a414a" d="M87 75C49 33 22-17 22-94c0-76 28-126 65-167h31c-38 41-64 92-64 168S80 34 118 75H87" id="at"/><g id="d"><use transform="matrix(0.06172839506172839,0,0,0.06172839506172839,0,0)" xlink:href="#at"/><use transform="matrix(0.06172839506172839,0,0,0.06172839506172839,7.345679012345679,0)" xlink:href="#am"/><use transform="matrix(0.06172839506172839,0,0,0.06172839506172839,12.222222222222221,0)" xlink:href="#an"/></g><path fill="#3a414a" d="M108 0H70L1-190h34L89-25l56-165h34" id="au"/><path fill="#3a414a" d="M33-261c38 41 65 92 65 168S71 34 33 75H2C39 34 66-17 66-93S39-220 2-261h31" id="av"/><g id="e"><use transform="matrix(0.06172839506172839,0,0,0.06172839506172839,0,0)" xlink:href="#al"/><use transform="matrix(0.06172839506172839,0,0,0.06172839506172839,11.11111111111111,0)" xlink:href="#aj"/><use transform="matrix(0.06172839506172839,0,0,0.06172839506172839,22.22222222222222,0)" xlink:href="#au"/><use transform="matrix(0.06172839506172839,0,0,0.06172839506172839,33.33333333333333,0)" xlink:href="#av"/></g><g id="f"><use transform="matrix(0.06172839506172839,0,0,0.06172839506172839,0,0)" xlink:href="#ar"/><use transform="matrix(0.06172839506172839,0,0,0.06172839506172839,15.987654320987653,0)" xlink:href="#ai"/><use transform="matrix(0.06172839506172839,0,0,0.06172839506172839,28.333333333333332,0)" xlink:href="#as"/><use transform="matrix(0.06172839506172839,0,0,0.06172839506172839,34.50617283950617,0)" xlink:href="#ai"/></g><path fill="#3a414a" d="M212-179c-10-28-35-45-73-45-59 0-87 40-87 99 0 60 29 101 89 101 43 0 62-24 78-52l27 14C228-24 195 4 139 4 59 4 22-46 18-125c-6-104 99-153 187-111 19 9 31 26 39 46" id="aw"/><path fill="#3a414a" d="M24 0v-261h32V0H24" id="ax"/><path fill="#3a414a" d="M100-194c63 0 86 42 84 106H49c0 40 14 67 53 68 26 1 43-12 49-29l28 8c-11 28-37 45-77 45C44 4 14-33 15-96c1-61 26-98 85-98zm52 81c6-60-76-77-97-28-3 7-6 17-6 28h103" id="ay"/><g id="g"><use transform="matrix(0.06172839506172839,0,0,0.06172839506172839,0,0)" xlink:href="#aw"/><use transform="matrix(0.06172839506172839,0,0,0.06172839506172839,15.987654320987653,0)" xlink:href="#ax"/><use transform="matrix(0.06172839506172839,0,0,0.06172839506172839,20.864197530864196,0)" xlink:href="#ay"/><use transform="matrix(0.06172839506172839,0,0,0.06172839506172839,33.20987654320987,0)" xlink:href="#ai"/><use transform="matrix(0.06172839506172839,0,0,0.06172839506172839,45.55555555555555,0)" xlink:href="#an"/><use transform="matrix(0.06172839506172839,0,0,0.06172839506172839,57.90123456790123,0)" xlink:href="#am"/><use transform="matrix(0.06172839506172839,0,0,0.06172839506172839,62.77777777777777,0)" xlink:href="#an"/><use transform="matrix(0.06172839506172839,0,0,0.06172839506172839,75.12345679012346,0)" xlink:href="#ao"/></g><path fill="#3a414a" d="M85-194c31 0 48 13 60 33l-1-100h32l1 261h-30c-2-10 0-23-3-31C134-8 116 4 85 4 32 4 16-35 15-94c0-66 23-100 70-100zm9 24c-40 0-46 34-46 75 0 40 6 74 45 74 42 0 51-32 51-76 0-42-9-74-50-73" id="az"/><g id="h"><use transform="matrix(0.06172839506172839,0,0,0.06172839506172839,0,0)" xlink:href="#aw"/><use transform="matrix(0.06172839506172839,0,0,0.06172839506172839,15.987654320987653,0)" xlink:href="#ax"/><use transform="matrix(0.06172839506172839,0,0,0.06172839506172839,20.864197530864196,0)" xlink:href="#ay"/><use transform="matrix(0.06172839506172839,0,0,0.06172839506172839,33.20987654320987,0)" xlink:href="#ai"/><use transform="matrix(0.06172839506172839,0,0,0.06172839506172839,45.55555555555555,0)" xlink:href="#an"/><use transform="matrix(0.06172839506172839,0,0,0.06172839506172839,57.90123456790123,0)" xlink:href="#ay"/><use transform="matrix(0.06172839506172839,0,0,0.06172839506172839,70.24691358024691,0)" xlink:href="#az"/></g><path d="M212-179c-10-28-35-45-73-45-59 0-87 40-87 99 0 60 29 101 89 101 43 0 62-24 78-52l27 14C228-24 195 4 139 4 59 4 22-46 18-125c-6-104 99-153 187-111 19 9 31 26 39 46" id="aA"/><path d="M100-194c62-1 85 37 85 99 1 63-27 99-86 99S16-35 15-95c0-66 28-99 85-99zM99-20c44 1 53-31 53-75 0-43-8-75-51-75s-53 32-53 75 10 74 51 75" id="aB"/><path d="M135-143c-3-34-86-38-87 0 15 53 115 12 119 90S17 21 10-45l28-5c4 36 97 45 98 0-10-56-113-15-118-90-4-57 82-63 122-42 12 7 21 19 24 35" id="aC"/><path d="M59-47c-2 24 18 29 38 22v24C64 9 27 4 27-40v-127H5v-23h24l9-43h21v43h35v23H59v120" id="aD"/><path d="M210-169c-67 3-38 105-44 169h-31v-121c0-29-5-50-35-48C34-165 62-65 56 0H25l-1-190h30c1 10-1 24 2 32 10-44 99-50 107 0 11-21 27-35 58-36 85-2 47 119 55 194h-31v-121c0-29-5-49-35-48" id="aE"/><path d="M100-194c63 0 86 42 84 106H49c0 40 14 67 53 68 26 1 43-12 49-29l28 8c-11 28-37 45-77 45C44 4 14-33 15-96c1-61 26-98 85-98zm52 81c6-60-76-77-97-28-3 7-6 17-6 28h103" id="aF"/><path d="M114-163C36-179 61-72 57 0H25l-1-190h30c1 12-1 29 2 39 6-27 23-49 58-41v29" id="aG"/><g id="i"><use transform="matrix(0.056172839506172814,0,0,0.056172839506172814,0,0)" xlink:href="#aA"/><use transform="matrix(0.056172839506172814,0,0,0.056172839506172814,14.548765432098758,0)" xlink:href="#aB"/><use transform="matrix(0.056172839506172814,0,0,0.056172839506172814,25.78333333333332,0)" xlink:href="#aC"/><use transform="matrix(0.056172839506172814,0,0,0.056172839506172814,35.89444444444443,0)" xlink:href="#aD"/><use transform="matrix(0.056172839506172814,0,0,0.056172839506172814,41.51172839506171,0)" xlink:href="#aB"/><use transform="matrix(0.056172839506172814,0,0,0.056172839506172814,52.74629629629627,0)" xlink:href="#aE"/><use transform="matrix(0.056172839506172814,0,0,0.056172839506172814,69.54197530864195,0)" xlink:href="#aF"/><use transform="matrix(0.056172839506172814,0,0,0.056172839506172814,80.77654320987651,0)" xlink:href="#aG"/></g><path d="M185-189c-5-48-123-54-124 2 14 75 158 14 163 119 3 78-121 87-175 55-17-10-28-26-33-46l33-7c5 56 141 63 141-1 0-78-155-14-162-118-5-82 145-84 179-34 5 7 8 16 11 25" id="aH"/><path d="M177-190C167-65 218 103 67 71c-23-6-38-20-44-43l32-5c15 47 100 32 89-28v-30C133-14 115 1 83 1 29 1 15-40 15-95c0-56 16-97 71-98 29-1 48 16 59 35 1-10 0-23 2-32h30zM94-22c36 0 50-32 50-73 0-42-14-75-50-75-39 0-46 34-46 75s6 73 46 73" id="aI"/><path d="M117-194c89-4 53 116 60 194h-32v-121c0-31-8-49-39-48C34-167 62-67 57 0H25l-1-190h30c1 10-1 24 2 32 11-22 29-35 61-36" id="aJ"/><path d="M141-36C126-15 110 5 73 4 37 3 15-17 15-53c-1-64 63-63 125-63 3-35-9-54-41-54-24 1-41 7-42 31l-33-3c5-37 33-52 76-52 45 0 72 20 72 64v82c-1 20 7 32 28 27v20c-31 9-61-2-59-35zM48-53c0 20 12 33 32 33 41-3 63-29 60-74-43 2-92-5-92 41" id="aK"/><path d="M24-231v-30h32v30H24zM24 0v-190h32V0H24" id="aL"/><g id="j"><use transform="matrix(0.056172839506172814,0,0,0.056172839506172814,0,0)" xlink:href="#aH"/><use transform="matrix(0.056172839506172814,0,0,0.056172839506172814,13.481481481481476,0)" xlink:href="#aF"/><use transform="matrix(0.056172839506172814,0,0,0.056172839506172814,24.716049382716037,0)" xlink:href="#aI"/><use transform="matrix(0.056172839506172814,0,0,0.056172839506172814,35.9506172839506,0)" xlink:href="#aE"/><use transform="matrix(0.056172839506172814,0,0,0.056172839506172814,52.74629629629627,0)" xlink:href="#aF"/><use transform="matrix(0.056172839506172814,0,0,0.056172839506172814,63.980864197530835,0)" xlink:href="#aJ"/><use transform="matrix(0.056172839506172814,0,0,0.056172839506172814,75.2154320987654,0)" xlink:href="#aD"/><use transform="matrix(0.056172839506172814,0,0,0.056172839506172814,80.83271604938268,0)" xlink:href="#aK"/><use transform="matrix(0.056172839506172814,0,0,0.056172839506172814,92.06728395061725,0)" xlink:href="#aD"/><use transform="matrix(0.056172839506172814,0,0,0.056172839506172814,97.68456790123453,0)" xlink:href="#aL"/><use transform="matrix(0.056172839506172814,0,0,0.056172839506172814,102.12222222222218,0)" xlink:href="#aB"/><use transform="matrix(0.056172839506172814,0,0,0.056172839506172814,113.35679012345673,0)" xlink:href="#aJ"/></g><path d="M106-169C34-169 62-67 57 0H25v-261h32l-1 103c12-21 28-36 61-36 89 0 53 116 60 194h-32v-121c2-32-8-49-39-48" id="aM"/><path d="M84 4C-5 8 30-112 23-190h32v120c0 31 7 50 39 49 72-2 45-101 50-169h31l1 190h-30c-1-10 1-25-2-33-11 22-28 36-60 37" id="aN"/><g id="k"><use transform="matrix(0.056172839506172835,0,0,0.056172839506172835,0,0)" xlink:href="#aA"/><use transform="matrix(0.056172839506172835,0,0,0.056172839506172835,14.548765432098763,0)" xlink:href="#aM"/><use transform="matrix(0.056172839506172835,0,0,0.056172839506172835,25.78333333333333,0)" xlink:href="#aN"/><use transform="matrix(0.056172839506172835,0,0,0.056172839506172835,37.0179012345679,0)" xlink:href="#aG"/><use transform="matrix(0.056172839506172835,0,0,0.056172839506172835,43.70246913580247,0)" xlink:href="#aJ"/></g><path d="M205 0l-28-72H64L36 0H1l101-248h38L239 0h-34zm-38-99l-47-123c-12 45-31 82-46 123h93" id="aO"/><path d="M24 0v-261h32V0H24" id="aP"/><path d="M179-190L93 31C79 59 56 82 12 73V49c39 6 53-20 64-50L1-190h34L92-34l54-156h33" id="aQ"/><g id="l"><use transform="matrix(0.056172839506172835,0,0,0.056172839506172835,0,0)" xlink:href="#aO"/><use transform="matrix(0.056172839506172835,0,0,0.056172839506172835,13.481481481481481,0)" xlink:href="#aJ"/><use transform="matrix(0.056172839506172835,0,0,0.056172839506172835,24.716049382716047,0)" xlink:href="#aK"/><use transform="matrix(0.056172839506172835,0,0,0.056172839506172835,35.95061728395061,0)" xlink:href="#aP"/><use transform="matrix(0.056172839506172835,0,0,0.056172839506172835,40.38827160493827,0)" xlink:href="#aQ"/><use transform="matrix(0.056172839506172835,0,0,0.056172839506172835,50.49938271604938,0)" xlink:href="#aC"/><use transform="matrix(0.056172839506172835,0,0,0.056172839506172835,60.610493827160504,0)" xlink:href="#aL"/><use transform="matrix(0.056172839506172835,0,0,0.056172839506172835,65.04814814814814,0)" xlink:href="#aC"/></g><linearGradient gradientUnits="userSpaceOnUse" id="m" x1="480" y1="857" x2="480" y2="760"><stop offset="0%" stop-color="#32bedd"/><stop offset="77.5%" stop-color="#32d4f5"/></linearGradient><g id="n"><use transform="matrix(0.056172839506172835,0,0,0.056172839506172835,0,0)" xlink:href="#aA"/><use transform="matrix(0.056172839506172835,0,0,0.056172839506172835,14.548765432098763,0)" xlink:href="#aB"/><use transform="matrix(0.056172839506172835,0,0,0.056172839506172835,25.78333333333333,0)" xlink:href="#aJ"/><use transform="matrix(0.056172839506172835,0,0,0.056172839506172835,37.0179012345679,0)" xlink:href="#aD"/><use transform="matrix(0.056172839506172835,0,0,0.056172839506172835,42.635185185185186,0)" xlink:href="#aF"/><use transform="matrix(0.056172839506172835,0,0,0.056172839506172835,53.86975308641975,0)" xlink:href="#aJ"/><use transform="matrix(0.056172839506172835,0,0,0.056172839506172835,65.10432098765432,0)" xlink:href="#aD"/></g><path d="M96-169c-40 0-48 33-48 73s9 75 48 75c24 0 41-14 43-38l32 2c-6 37-31 61-74 61-59 0-76-41-82-99-10-93 101-131 147-64 4 7 5 14 7 22l-32 3c-4-21-16-35-41-35" id="aR"/><g id="o"><use transform="matrix(0.056172839506172835,0,0,0.056172839506172835,0,0)" xlink:href="#aH"/><use transform="matrix(0.056172839506172835,0,0,0.056172839506172835,13.481481481481481,0)" xlink:href="#aR"/><use transform="matrix(0.056172839506172835,0,0,0.056172839506172835,23.59259259259259,0)" xlink:href="#aB"/><use transform="matrix(0.056172839506172835,0,0,0.056172839506172835,34.82716049382716,0)" xlink:href="#aG"/><use transform="matrix(0.056172839506172835,0,0,0.056172839506172835,41.51172839506172,0)" xlink:href="#aL"/><use transform="matrix(0.056172839506172835,0,0,0.056172839506172835,45.94938271604938,0)" xlink:href="#aJ"/><use transform="matrix(0.056172839506172835,0,0,0.056172839506172835,57.18395061728394,0)" xlink:href="#aI"/></g><path fill="#3a414a" d="M30 0v-248h33v221h125V0H30" id="aS"/><path fill="#3a414a" d="M100-194c62-1 85 37 85 99 1 63-27 99-86 99S16-35 15-95c0-66 28-99 85-99zM99-20c44 1 53-31 53-75 0-43-8-75-51-75s-53 32-53 75 10 74 51 75" id="aT"/><path fill="#3a414a" d="M179-190L93 31C79 59 56 82 12 73V49c39 6 53-20 64-50L1-190h34L92-34l54-156h33" id="aU"/><g id="p"><use transform="matrix(0.06172839506172839,0,0,0.06172839506172839,0,0)" xlink:href="#aS"/><use transform="matrix(0.06172839506172839,0,0,0.06172839506172839,12.345679012345679,0)" xlink:href="#aT"/><use transform="matrix(0.06172839506172839,0,0,0.06172839506172839,24.691358024691358,0)" xlink:href="#aU"/><use transform="matrix(0.06172839506172839,0,0,0.06172839506172839,35.80246913580247,0)" xlink:href="#ai"/><use transform="matrix(0.06172839506172839,0,0,0.06172839506172839,48.148148148148145,0)" xlink:href="#ax"/><use transform="matrix(0.06172839506172839,0,0,0.06172839506172839,53.02469135802469,0)" xlink:href="#as"/><use transform="matrix(0.06172839506172839,0,0,0.06172839506172839,59.19753086419753,0)" xlink:href="#aU"/></g><path fill="#3a414a" d="M84 4C-5 8 30-112 23-190h32v120c0 31 7 50 39 49 72-2 45-101 50-169h31l1 190h-30c-1-10 1-25-2-33-11 22-28 36-60 37" id="aV"/><path fill="#3a414a" d="M114-163C36-179 61-72 57 0H25l-1-190h30c1 12-1 29 2 39 6-27 23-49 58-41v29" id="aW"/><g id="r"><use transform="matrix(0.06172839506172839,0,0,0.06172839506172839,0,0)" xlink:href="#aw"/><use transform="matrix(0.06172839506172839,0,0,0.06172839506172839,15.987654320987653,0)" xlink:href="#ak"/><use transform="matrix(0.06172839506172839,0,0,0.06172839506172839,28.333333333333332,0)" xlink:href="#aV"/><use transform="matrix(0.06172839506172839,0,0,0.06172839506172839,40.67901234567901,0)" xlink:href="#aW"/><use transform="matrix(0.06172839506172839,0,0,0.06172839506172839,48.02469135802469,0)" xlink:href="#an"/></g><path fill="#3a414a" d="M16-82v-28h88v28H16" id="aX"/><path fill="#3a414a" d="M185-189c-5-48-123-54-124 2 14 75 158 14 163 119 3 78-121 87-175 55-17-10-28-26-33-46l33-7c5 56 141 63 141-1 0-78-155-14-162-118-5-82 145-84 179-34 5 7 8 16 11 25" id="aY"/><g id="s"><use transform="matrix(0.06172839506172839,0,0,0.06172839506172839,0,0)" xlink:href="#aw"/><use transform="matrix(0.06172839506172839,0,0,0.06172839506172839,15.987654320987653,0)" xlink:href="#aW"/><use transform="matrix(0.06172839506172839,0,0,0.06172839506172839,23.333333333333332,0)" xlink:href="#aT"/><use transform="matrix(0.06172839506172839,0,0,0.06172839506172839,35.67901234567901,0)" xlink:href="#aj"/><use transform="matrix(0.06172839506172839,0,0,0.06172839506172839,46.79012345679013,0)" xlink:href="#aj"/><use transform="matrix(0.06172839506172839,0,0,0.06172839506172839,57.90123456790124,0)" xlink:href="#aX"/><use transform="matrix(0.06172839506172839,0,0,0.06172839506172839,65.24691358024693,0)" xlink:href="#aY"/><use transform="matrix(0.06172839506172839,0,0,0.06172839506172839,80.06172839506173,0)" xlink:href="#ay"/><use transform="matrix(0.06172839506172839,0,0,0.06172839506172839,92.40740740740742,0)" xlink:href="#ax"/><use transform="matrix(0.06172839506172839,0,0,0.06172839506172839,97.28395061728396,0)" xlink:href="#ax"/></g><g id="t"><use transform="matrix(0.06172839506172839,0,0,0.06172839506172839,0,0)" xlink:href="#ai"/><use transform="matrix(0.06172839506172839,0,0,0.06172839506172839,12.345679012345679,0)" xlink:href="#an"/><use transform="matrix(0.06172839506172839,0,0,0.06172839506172839,24.691358024691358,0)" xlink:href="#az"/></g><path fill="#3a414a" d="M232-93c-1 65-40 97-104 97C67 4 28-28 28-90v-158h33c8 89-33 224 67 224 102 0 64-133 71-224h33v155" id="aZ"/><path fill="#3a414a" d="M115-194c55 1 70 41 70 98S169 2 115 4C84 4 66-9 55-30l1 105H24l-1-265h31l2 30c10-21 28-34 59-34zm-8 174c40 0 45-34 45-75s-6-73-45-74c-42 0-51 32-51 76 0 43 10 73 51 73" id="ba"/><g id="u"><use transform="matrix(0.06172839506172839,0,0,0.06172839506172839,0,0)" xlink:href="#aZ"/><use transform="matrix(0.06172839506172839,0,0,0.06172839506172839,15.987654320987653,0)" xlink:href="#ba"/><use transform="matrix(0.06172839506172839,0,0,0.06172839506172839,28.333333333333332,0)" xlink:href="#aj"/><use transform="matrix(0.06172839506172839,0,0,0.06172839506172839,39.44444444444444,0)" xlink:href="#ay"/><use transform="matrix(0.06172839506172839,0,0,0.06172839506172839,51.79012345679012,0)" xlink:href="#ax"/><use transform="matrix(0.06172839506172839,0,0,0.06172839506172839,56.666666666666664,0)" xlink:href="#ax"/></g><path fill="#3a414a" d="M67-125c0 53 21 87 73 88 37 1 54-22 65-47l45 17C233-25 199 4 140 4 58 4 20-42 15-125 8-235 124-281 211-232c18 10 29 29 36 50l-46 12c-8-25-30-41-62-41-52 0-71 34-72 86" id="bb"/><path fill="#3a414a" d="M25 0v-261h50V0H25" id="bc"/><path fill="#3a414a" d="M133-34C117-15 103 5 69 4 32 3 11-16 11-54c-1-60 55-63 116-61 1-26-3-47-28-47-18 1-26 9-28 27l-52-2c7-38 36-58 82-57s74 22 75 68l1 82c-1 14 12 18 25 15v27c-30 8-71 5-69-32zm-48 3c29 0 43-24 42-57-32 0-66-3-65 30 0 17 8 27 23 27" id="bd"/><path fill="#3a414a" d="M137-138c1-29-70-34-71-4 15 46 118 7 119 86 1 83-164 76-172 9l43-7c4 19 20 25 44 25 33 8 57-30 24-41C81-84 22-81 20-136c-2-80 154-74 161-7" id="be"/><path fill="#3a414a" d="M25-224v-37h50v37H25zM25 0v-190h50V0H25" id="bf"/><path fill="#3a414a" d="M121-226c-27-7-43 5-38 36h38v33H83V0H34v-157H6v-33h28c-9-59 32-81 87-68v32" id="bg"/><path fill="#3a414a" d="M190-63c-7 42-38 67-86 67-59 0-84-38-90-98-12-110 154-137 174-36l-49 2c-2-19-15-32-35-32-30 0-35 28-38 64-6 74 65 87 74 30" id="bh"/><path fill="#3a414a" d="M115-3C79 11 28 4 28-45v-112H4v-33h27l15-45h31v45h36v33H77v99c-1 23 16 31 38 25v30" id="bi"/><path fill="#3a414a" d="M110-194c64 0 96 36 96 99 0 64-35 99-97 99-61 0-95-36-95-99 0-62 34-99 96-99zm-1 164c35 0 45-28 45-65 0-40-10-65-43-65-34 0-45 26-45 65 0 36 10 65 43 65" id="bj"/><path fill="#3a414a" d="M135-194c87-1 58 113 63 194h-50c-7-57 23-157-34-157-59 0-34 97-39 157H25l-1-190h47c2 12-1 28 3 38 12-26 28-41 61-42" id="bk"/><g id="v"><use transform="matrix(0.06172839506172839,0,0,0.06172839506172839,0,0)" xlink:href="#bb"/><use transform="matrix(0.06172839506172839,0,0,0.06172839506172839,15.987654320987653,0)" xlink:href="#bc"/><use transform="matrix(0.06172839506172839,0,0,0.06172839506172839,22.160493827160494,0)" xlink:href="#bd"/><use transform="matrix(0.06172839506172839,0,0,0.06172839506172839,34.50617283950617,0)" xlink:href="#be"/><use transform="matrix(0.06172839506172839,0,0,0.06172839506172839,46.85185185185185,0)" xlink:href="#be"/><use transform="matrix(0.06172839506172839,0,0,0.06172839506172839,59.197530864197525,0)" xlink:href="#bf"/><use transform="matrix(0.06172839506172839,0,0,0.06172839506172839,65.37037037037037,0)" xlink:href="#bg"/><use transform="matrix(0.06172839506172839,0,0,0.06172839506172839,72.71604938271605,0)" xlink:href="#bf"/><use transform="matrix(0.06172839506172839,0,0,0.06172839506172839,78.88888888888889,0)" xlink:href="#bh"/><use transform="matrix(0.06172839506172839,0,0,0.06172839506172839,91.23456790123457,0)" xlink:href="#bd"/><use transform="matrix(0.06172839506172839,0,0,0.06172839506172839,103.58024691358025,0)" xlink:href="#bi"/><use transform="matrix(0.06172839506172839,0,0,0.06172839506172839,110.92592592592594,0)" xlink:href="#bf"/><use transform="matrix(0.06172839506172839,0,0,0.06172839506172839,117.09876543209877,0)" xlink:href="#bj"/><use transform="matrix(0.06172839506172839,0,0,0.06172839506172839,130.6172839506173,0)" xlink:href="#bk"/></g><path fill="#3a414a" d="M220-157c-53 9-28 100-34 157h-49v-107c1-27-5-49-29-50C55-147 81-57 75 0H25l-1-190h47c2 12-1 28 3 38 10-53 101-56 108 0 13-22 24-43 59-42 82 1 51 116 57 194h-49v-107c-1-25-5-48-29-50" id="bl"/><path fill="#3a414a" d="M185-48c-13 30-37 53-82 52C43 2 14-33 14-96s30-98 90-98c62 0 83 45 84 108H66c0 31 8 55 39 56 18 0 30-7 34-22zm-45-69c5-46-57-63-70-21-2 6-4 13-4 21h74" id="bm"/><path fill="#3a414a" d="M114-157C55-157 80-60 75 0H25v-261h50l-1 109c12-26 28-41 61-42 86-1 58 113 63 194h-50c-7-57 23-157-34-157" id="bn"/><path fill="#3a414a" d="M88-194c31-1 46 15 58 34l-1-101h50l1 261h-48c-2-10 0-23-3-31C134-8 116 4 84 4 32 4 16-41 15-95c0-56 19-97 73-99zm17 164c33 0 40-30 41-66 1-37-9-64-41-64s-38 30-39 65c0 43 13 65 39 65" id="bo"/><g id="w"><use transform="matrix(0.06172839506172839,0,0,0.06172839506172839,0,0)" xlink:href="#bl"/><use transform="matrix(0.06172839506172839,0,0,0.06172839506172839,19.753086419753085,0)" xlink:href="#bm"/><use transform="matrix(0.06172839506172839,0,0,0.06172839506172839,32.098765432098766,0)" xlink:href="#bi"/><use transform="matrix(0.06172839506172839,0,0,0.06172839506172839,39.44444444444444,0)" xlink:href="#bn"/><use transform="matrix(0.06172839506172839,0,0,0.06172839506172839,52.96296296296296,0)" xlink:href="#bj"/><use transform="matrix(0.06172839506172839,0,0,0.06172839506172839,66.48148148148148,0)" xlink:href="#bo"/></g><g id="x"><use transform="matrix(0.056172839506172835,0,0,0.056172839506172835,0,0)" xlink:href="#aA"/><use transform="matrix(0.056172839506172835,0,0,0.056172839506172835,14.548765432098763,0)" xlink:href="#aP"/><use transform="matrix(0.056172839506172835,0,0,0.056172839506172835,18.986419753086416,0)" xlink:href="#aN"/><use transform="matrix(0.056172839506172835,0,0,0.056172839506172835,30.220987654320986,0)" xlink:href="#aC"/><use transform="matrix(0.056172839506172835,0,0,0.056172839506172835,40.33209876543209,0)" xlink:href="#aD"/><use transform="matrix(0.056172839506172835,0,0,0.056172839506172835,45.94938271604938,0)" xlink:href="#aF"/><use transform="matrix(0.056172839506172835,0,0,0.056172839506172835,57.18395061728394,0)" xlink:href="#aG"/><use transform="matrix(0.056172839506172835,0,0,0.056172839506172835,63.8685185185185,0)" xlink:href="#aL"/><use transform="matrix(0.056172839506172835,0,0,0.056172839506172835,68.30617283950616,0)" xlink:href="#aJ"/><use transform="matrix(0.056172839506172835,0,0,0.056172839506172835,79.54074074074073,0)" xlink:href="#aI"/></g><path d="M160-131c35 5 61 23 61 61C221 17 115-2 30 0v-248c76 3 177-17 177 60 0 33-19 50-47 57zm-97-11c50-1 110 9 110-42 0-47-63-36-110-37v79zm0 115c55-2 124 14 124-45 0-56-70-42-124-44v89" id="bp"/><path d="M85-194c31 0 48 13 60 33l-1-100h32l1 261h-30c-2-10 0-23-3-31C134-8 116 4 85 4 32 4 16-35 15-94c0-66 23-100 70-100zm9 24c-40 0-46 34-46 75 0 40 6 74 45 74 42 0 51-32 51-76 0-42-9-74-50-73" id="bq"/><g id="y"><use transform="matrix(0.056172839506172835,0,0,0.056172839506172835,0,0)" xlink:href="#bp"/><use transform="matrix(0.056172839506172835,0,0,0.056172839506172835,13.481481481481481,0)" xlink:href="#aK"/><use transform="matrix(0.056172839506172835,0,0,0.056172839506172835,24.716049382716047,0)" xlink:href="#aC"/><use transform="matrix(0.056172839506172835,0,0,0.056172839506172835,34.82716049382716,0)" xlink:href="#aF"/><use transform="matrix(0.056172839506172835,0,0,0.056172839506172835,46.06172839506172,0)" xlink:href="#bq"/></g><g id="z"><use transform="matrix(0.056172839506172835,0,0,0.056172839506172835,0,0)" xlink:href="#aB"/><use transform="matrix(0.056172839506172835,0,0,0.056172839506172835,11.234567901234566,0)" xlink:href="#aJ"/></g><g id="A"><use transform="matrix(0.056172839506172835,0,0,0.056172839506172835,0,0)" xlink:href="#aC"/><use transform="matrix(0.056172839506172835,0,0,0.056172839506172835,10.11111111111111,0)" xlink:href="#aR"/><use transform="matrix(0.056172839506172835,0,0,0.056172839506172835,20.22222222222222,0)" xlink:href="#aB"/><use transform="matrix(0.056172839506172835,0,0,0.056172839506172835,31.456790123456788,0)" xlink:href="#aG"/><use transform="matrix(0.056172839506172835,0,0,0.056172839506172835,38.14135802469136,0)" xlink:href="#aF"/><use transform="matrix(0.056172839506172835,0,0,0.056172839506172835,49.37592592592593,0)" xlink:href="#aC"/></g><path d="M30-248c118-7 216 8 213 122C240-48 200 0 122 0H30v-248zM63-27c89 8 146-16 146-99s-60-101-146-95v194" id="br"/><g id="B"><use transform="matrix(0.056172839506172835,0,0,0.056172839506172835,0,0)" xlink:href="#br"/><use transform="matrix(0.056172839506172835,0,0,0.056172839506172835,14.548765432098763,0)" xlink:href="#aF"/><use transform="matrix(0.056172839506172835,0,0,0.056172839506172835,25.78333333333333,0)" xlink:href="#aC"/><use transform="matrix(0.056172839506172835,0,0,0.056172839506172835,35.894444444444446,0)" xlink:href="#aL"/><use transform="matrix(0.056172839506172835,0,0,0.056172839506172835,40.3320987654321,0)" xlink:href="#aI"/><use transform="matrix(0.056172839506172835,0,0,0.056172839506172835,51.56666666666666,0)" xlink:href="#aJ"/></g><path d="M240 0l2-218c-23 76-54 145-80 218h-23L58-218 59 0H30v-248h44l77 211c21-75 51-140 76-211h43V0h-30" id="bs"/><path d="M143 0L79-87 56-68V0H24v-261h32v163l83-92h37l-77 82L181 0h-38" id="bt"/><g id="C"><use transform="matrix(0.056172839506172835,0,0,0.056172839506172835,0,0)" xlink:href="#bs"/><use transform="matrix(0.056172839506172835,0,0,0.056172839506172835,16.795679012345676,0)" xlink:href="#aK"/><use transform="matrix(0.056172839506172835,0,0,0.056172839506172835,28.030246913580243,0)" xlink:href="#aG"/><use transform="matrix(0.056172839506172835,0,0,0.056172839506172835,34.71481481481481,0)" xlink:href="#bt"/><use transform="matrix(0.056172839506172835,0,0,0.056172839506172835,44.825925925925915,0)" xlink:href="#aF"/><use transform="matrix(0.056172839506172835,0,0,0.056172839506172835,56.060493827160485,0)" xlink:href="#aD"/><use transform="matrix(0.056172839506172835,0,0,0.056172839506172835,61.67777777777777,0)" xlink:href="#aL"/><use transform="matrix(0.056172839506172835,0,0,0.056172839506172835,66.11543209876542,0)" xlink:href="#aJ"/><use transform="matrix(0.056172839506172835,0,0,0.056172839506172835,77.35,0)" xlink:href="#aI"/></g><g id="D"><use transform="matrix(0.056172839506172835,0,0,0.056172839506172835,0,0)" xlink:href="#aH"/><use transform="matrix(0.056172839506172835,0,0,0.056172839506172835,13.481481481481481,0)" xlink:href="#aD"/><use transform="matrix(0.056172839506172835,0,0,0.056172839506172835,19.098765432098766,0)" xlink:href="#aG"/><use transform="matrix(0.056172839506172835,0,0,0.056172839506172835,25.78333333333333,0)" xlink:href="#aK"/><use transform="matrix(0.056172839506172835,0,0,0.056172839506172835,37.0179012345679,0)" xlink:href="#aD"/><use transform="matrix(0.056172839506172835,0,0,0.056172839506172835,42.635185185185186,0)" xlink:href="#aF"/><use transform="matrix(0.056172839506172835,0,0,0.056172839506172835,53.86975308641975,0)" xlink:href="#aI"/><use transform="matrix(0.056172839506172835,0,0,0.056172839506172835,65.10432098765432,0)" xlink:href="#aL"/><use transform="matrix(0.056172839506172835,0,0,0.056172839506172835,69.54197530864197,0)" xlink:href="#aF"/><use transform="matrix(0.056172839506172835,0,0,0.056172839506172835,80.77654320987654,0)" xlink:href="#aC"/></g><path d="M101-234c-31-9-42 10-38 44h38v23H63V0H32v-167H5v-23h27c-7-52 17-82 69-68v24" id="bu"/><g id="E"><use transform="matrix(0.056172839506172835,0,0,0.056172839506172835,0,0)" xlink:href="#bu"/><use transform="matrix(0.056172839506172835,0,0,0.056172839506172835,5.617283950617283,0)" xlink:href="#aB"/><use transform="matrix(0.056172839506172835,0,0,0.056172839506172835,16.851851851851848,0)" xlink:href="#aG"/></g><g id="F"><use transform="matrix(0.056172839506172835,0,0,0.056172839506172835,0,0)" xlink:href="#bq"/><use transform="matrix(0.056172839506172835,0,0,0.056172839506172835,11.234567901234566,0)" xlink:href="#aL"/><use transform="matrix(0.056172839506172835,0,0,0.056172839506172835,15.67222222222222,0)" xlink:href="#bu"/><use transform="matrix(0.056172839506172835,0,0,0.056172839506172835,20.896296296296292,0)" xlink:href="#bu"/><use transform="matrix(0.056172839506172835,0,0,0.056172839506172835,26.513580246913577,0)" xlink:href="#aF"/><use transform="matrix(0.056172839506172835,0,0,0.056172839506172835,37.74814814814815,0)" xlink:href="#aG"/><use transform="matrix(0.056172839506172835,0,0,0.056172839506172835,44.43271604938271,0)" xlink:href="#aF"/><use transform="matrix(0.056172839506172835,0,0,0.056172839506172835,55.667283950617275,0)" xlink:href="#aJ"/><use transform="matrix(0.056172839506172835,0,0,0.056172839506172835,66.90185185185184,0)" xlink:href="#aD"/></g><g id="G"><use transform="matrix(0.056172839506172835,0,0,0.056172839506172835,0,0)" xlink:href="#aR"/><use transform="matrix(0.056172839506172835,0,0,0.056172839506172835,10.11111111111111,0)" xlink:href="#aN"/><use transform="matrix(0.056172839506172835,0,0,0.056172839506172835,21.345679012345677,0)" xlink:href="#aC"/><use transform="matrix(0.056172839506172835,0,0,0.056172839506172835,31.456790123456788,0)" xlink:href="#aD"/><use transform="matrix(0.056172839506172835,0,0,0.056172839506172835,37.07407407407407,0)" xlink:href="#aF"/><use transform="matrix(0.056172839506172835,0,0,0.056172839506172835,48.30864197530863,0)" xlink:href="#aG"/><use transform="matrix(0.056172839506172835,0,0,0.056172839506172835,54.9932098765432,0)" xlink:href="#aC"/></g><path d="M63-220v92h138v28H63V0H30v-248h175v28H63" id="bv"/><g id="H"><use transform="matrix(0.056172839506172835,0,0,0.056172839506172835,0,0)" xlink:href="#bv"/><use transform="matrix(0.056172839506172835,0,0,0.056172839506172835,12.30185185185185,0)" xlink:href="#aF"/><use transform="matrix(0.056172839506172835,0,0,0.056172839506172835,23.536419753086417,0)" xlink:href="#aK"/><use transform="matrix(0.056172839506172835,0,0,0.056172839506172835,34.77098765432098,0)" xlink:href="#aD"/><use transform="matrix(0.056172839506172835,0,0,0.056172839506172835,40.38827160493827,0)" xlink:href="#aN"/><use transform="matrix(0.056172839506172835,0,0,0.056172839506172835,51.62283950617284,0)" xlink:href="#aG"/><use transform="matrix(0.056172839506172835,0,0,0.056172839506172835,58.3074074074074,0)" xlink:href="#aF"/></g><path d="M30 0v-248h187v28H63v79h144v27H63v87h162V0H30" id="bw"/><g id="I"><use transform="matrix(0.056172839506172835,0,0,0.056172839506172835,0,0)" xlink:href="#bw"/><use transform="matrix(0.056172839506172835,0,0,0.056172839506172835,13.481481481481481,0)" xlink:href="#aJ"/><use transform="matrix(0.056172839506172835,0,0,0.056172839506172835,24.716049382716047,0)" xlink:href="#aI"/><use transform="matrix(0.056172839506172835,0,0,0.056172839506172835,35.95061728395061,0)" xlink:href="#aL"/><use transform="matrix(0.056172839506172835,0,0,0.056172839506172835,40.38827160493827,0)" xlink:href="#aJ"/><use transform="matrix(0.056172839506172835,0,0,0.056172839506172835,51.62283950617284,0)" xlink:href="#aF"/><use transform="matrix(0.056172839506172835,0,0,0.056172839506172835,62.8574074074074,0)" xlink:href="#aF"/><use transform="matrix(0.056172839506172835,0,0,0.056172839506172835,74.09197530864198,0)" xlink:href="#aG"/><use transform="matrix(0.056172839506172835,0,0,0.056172839506172835,80.77654320987655,0)" xlink:href="#aL"/><use transform="matrix(0.056172839506172835,0,0,0.056172839506172835,85.2141975308642,0)" xlink:href="#aJ"/><use transform="matrix(0.056172839506172835,0,0,0.056172839506172835,96.44876543209877,0)" xlink:href="#aI"/></g><path fill="#3a414a" d="M240 0l2-218c-23 76-54 145-80 218h-23L58-218 59 0H30v-248h44l77 211c21-75 51-140 76-211h43V0h-30" id="bx"/><path fill="#3a414a" d="M210-169c-67 3-38 105-44 169h-31v-121c0-29-5-50-35-48C34-165 62-65 56 0H25l-1-190h30c1 10-1 24 2 32 10-44 99-50 107 0 11-21 27-35 58-36 85-2 47 119 55 194h-31v-121c0-29-5-49-35-48" id="by"/><g id="J"><use transform="matrix(0.055555555555555546,0,0,0.055555555555555546,0,0)" xlink:href="#bx"/><use transform="matrix(0.055555555555555546,0,0,0.055555555555555546,16.611111111111107,0)" xlink:href="#ay"/><use transform="matrix(0.055555555555555546,0,0,0.055555555555555546,27.722222222222214,0)" xlink:href="#as"/><use transform="matrix(0.055555555555555546,0,0,0.055555555555555546,33.27777777777777,0)" xlink:href="#ak"/><use transform="matrix(0.055555555555555546,0,0,0.055555555555555546,44.38888888888888,0)" xlink:href="#ai"/><use transform="matrix(0.055555555555555546,0,0,0.055555555555555546,55.499999999999986,0)" xlink:href="#by"/><use transform="matrix(0.055555555555555546,0,0,0.055555555555555546,72.11111111111109,0)" xlink:href="#ay"/><use transform="matrix(0.055555555555555546,0,0,0.055555555555555546,83.2222222222222,0)" xlink:href="#as"/><use transform="matrix(0.055555555555555546,0,0,0.055555555555555546,88.77777777777776,0)" xlink:href="#am"/><use transform="matrix(0.055555555555555546,0,0,0.055555555555555546,93.16666666666664,0)" xlink:href="#al"/><use transform="matrix(0.055555555555555546,0,0,0.055555555555555546,103.16666666666664,0)" xlink:href="#ai"/><use transform="matrix(0.055555555555555546,0,0,0.055555555555555546,114.27777777777776,0)" xlink:href="#ax"/><use transform="matrix(0.055555555555555546,0,0,0.055555555555555546,118.66666666666664,0)" xlink:href="#ax"/><use transform="matrix(0.055555555555555546,0,0,0.055555555555555546,123.05555555555553,0)" xlink:href="#aU"/></g><g id="K"><use transform="matrix(0.055555555555555546,0,0,0.055555555555555546,0,0)" xlink:href="#aw"/><use transform="matrix(0.055555555555555546,0,0,0.055555555555555546,14.388888888888886,0)" xlink:href="#ai"/><use transform="matrix(0.055555555555555546,0,0,0.055555555555555546,25.499999999999993,0)" xlink:href="#ax"/><use transform="matrix(0.055555555555555546,0,0,0.055555555555555546,29.888888888888882,0)" xlink:href="#al"/><use transform="matrix(0.055555555555555546,0,0,0.055555555555555546,39.88888888888888,0)" xlink:href="#aV"/><use transform="matrix(0.055555555555555546,0,0,0.055555555555555546,50.999999999999986,0)" xlink:href="#ax"/><use transform="matrix(0.055555555555555546,0,0,0.055555555555555546,55.38888888888887,0)" xlink:href="#ai"/><use transform="matrix(0.055555555555555546,0,0,0.055555555555555546,66.49999999999999,0)" xlink:href="#as"/><use transform="matrix(0.055555555555555546,0,0,0.055555555555555546,72.05555555555554,0)" xlink:href="#ay"/></g><g id="L"><use transform="matrix(0.055555555555555546,0,0,0.055555555555555546,0,0)" xlink:href="#al"/><use transform="matrix(0.055555555555555546,0,0,0.055555555555555546,9.999999999999998,0)" xlink:href="#ak"/><use transform="matrix(0.055555555555555546,0,0,0.055555555555555546,21.111111111111107,0)" xlink:href="#aV"/><use transform="matrix(0.055555555555555546,0,0,0.055555555555555546,32.222222222222214,0)" xlink:href="#aW"/><use transform="matrix(0.055555555555555546,0,0,0.055555555555555546,38.83333333333332,0)" xlink:href="#an"/></g><path fill="#3a414a" d="M103-251c84 0 111 97 45 133-19 10-37 24-39 52H78c0-63 77-55 77-114 0-30-21-42-52-43-32 0-53 17-56 46l-32-2c7-45 34-72 88-72zM77 0v-35h34V0H77" id="bz"/><g id="M"><use transform="matrix(0.055555555555555546,0,0,0.055555555555555546,0,0)" xlink:href="#au"/><use transform="matrix(0.055555555555555546,0,0,0.055555555555555546,9.999999999999998,0)" xlink:href="#ai"/><use transform="matrix(0.055555555555555546,0,0,0.055555555555555546,21.111111111111107,0)" xlink:href="#ax"/><use transform="matrix(0.055555555555555546,0,0,0.055555555555555546,25.499999999999996,0)" xlink:href="#aV"/><use transform="matrix(0.055555555555555546,0,0,0.055555555555555546,36.61111111111111,0)" xlink:href="#ay"/><use transform="matrix(0.055555555555555546,0,0,0.055555555555555546,47.722222222222214,0)" xlink:href="#bz"/></g><g id="N"><use transform="matrix(0.056172839506172835,0,0,0.056172839506172835,0,0)" xlink:href="#bw"/><use transform="matrix(0.056172839506172835,0,0,0.056172839506172835,13.481481481481481,0)" xlink:href="#br"/><use transform="matrix(0.056172839506172835,0,0,0.056172839506172835,28.030246913580243,0)" xlink:href="#aO"/></g><path d="M30-248c87 1 191-15 191 75 0 78-77 80-158 76V0H30v-248zm33 125c57 0 124 11 124-50 0-59-68-47-124-48v98" id="bA"/><path d="M108 0H70L1-190h34L89-25l56-165h34" id="bB"/><g id="O"><use transform="matrix(0.056172839506172835,0,0,0.056172839506172835,0,0)" xlink:href="#bA"/><use transform="matrix(0.056172839506172835,0,0,0.056172839506172835,13.481481481481481,0)" xlink:href="#aG"/><use transform="matrix(0.056172839506172835,0,0,0.056172839506172835,20.166049382716047,0)" xlink:href="#aF"/><use transform="matrix(0.056172839506172835,0,0,0.056172839506172835,31.400617283950616,0)" xlink:href="#bq"/><use transform="matrix(0.056172839506172835,0,0,0.056172839506172835,42.63518518518518,0)" xlink:href="#aL"/><use transform="matrix(0.056172839506172835,0,0,0.056172839506172835,47.07283950617283,0)" xlink:href="#aR"/><use transform="matrix(0.056172839506172835,0,0,0.056172839506172835,57.18395061728394,0)" xlink:href="#aD"/><use transform="matrix(0.056172839506172835,0,0,0.056172839506172835,62.80123456790123,0)" xlink:href="#aL"/><use transform="matrix(0.056172839506172835,0,0,0.056172839506172835,67.23888888888888,0)" xlink:href="#bB"/><use transform="matrix(0.056172839506172835,0,0,0.056172839506172835,77.35,0)" xlink:href="#aF"/></g><g id="P"><use transform="matrix(0.056172839506172835,0,0,0.056172839506172835,0,0)" xlink:href="#bs"/><use transform="matrix(0.056172839506172835,0,0,0.056172839506172835,16.795679012345676,0)" xlink:href="#aB"/><use transform="matrix(0.056172839506172835,0,0,0.056172839506172835,28.030246913580243,0)" xlink:href="#bq"/><use transform="matrix(0.056172839506172835,0,0,0.056172839506172835,39.26481481481481,0)" xlink:href="#aF"/><use transform="matrix(0.056172839506172835,0,0,0.056172839506172835,50.49938271604938,0)" xlink:href="#aP"/></g><g id="Q"><use transform="matrix(0.05,0,0,0.05,0,0)" xlink:href="#bw"/><use transform="matrix(0.05,0,0,0.05,12,0)" xlink:href="#bB"/><use transform="matrix(0.05,0,0,0.05,21,0)" xlink:href="#aK"/><use transform="matrix(0.05,0,0,0.05,31,0)" xlink:href="#aP"/><use transform="matrix(0.05,0,0,0.05,34.95,0)" xlink:href="#aN"/><use transform="matrix(0.05,0,0,0.05,44.95,0)" xlink:href="#aK"/><use transform="matrix(0.05,0,0,0.05,54.95,0)" xlink:href="#aD"/><use transform="matrix(0.05,0,0,0.05,59.95,0)" xlink:href="#aL"/><use transform="matrix(0.05,0,0,0.05,63.900000000000006,0)" xlink:href="#aB"/><use transform="matrix(0.05,0,0,0.05,73.9,0)" xlink:href="#aJ"/></g><path d="M33 0v-248h34V0H33" id="bC"/><path d="M115-194c55 1 70 41 70 98S169 2 115 4C84 4 66-9 55-30l1 105H24l-1-265h31l2 30c10-21 28-34 59-34zm-8 174c40 0 45-34 45-75s-6-73-45-74c-42 0-51 32-51 76 0 43 10 73 51 73" id="bD"/><g id="R"><use transform="matrix(0.056172839506172835,0,0,0.056172839506172835,0,0)" xlink:href="#bC"/><use transform="matrix(0.056172839506172835,0,0,0.056172839506172835,5.617283950617283,0)" xlink:href="#aE"/><use transform="matrix(0.056172839506172835,0,0,0.056172839506172835,22.412962962962958,0)" xlink:href="#bD"/><use transform="matrix(0.056172839506172835,0,0,0.056172839506172835,33.64753086419752,0)" xlink:href="#aP"/><use transform="matrix(0.056172839506172835,0,0,0.056172839506172835,38.085185185185175,0)" xlink:href="#aF"/><use transform="matrix(0.056172839506172835,0,0,0.056172839506172835,49.31975308641974,0)" xlink:href="#aE"/><use transform="matrix(0.056172839506172835,0,0,0.056172839506172835,66.11543209876541,0)" xlink:href="#aF"/><use transform="matrix(0.056172839506172835,0,0,0.056172839506172835,77.34999999999998,0)" xlink:href="#aJ"/><use transform="matrix(0.056172839506172835,0,0,0.056172839506172835,88.58456790123455,0)" xlink:href="#aD"/></g><path fill="#3a414a" d="M101-234c-31-9-42 10-38 44h38v23H63V0H32v-167H5v-23h27c-7-52 17-82 69-68v24" id="bE"/><g id="S"><use transform="matrix(0.06172839506172839,0,0,0.06172839506172839,0,0)" xlink:href="#ap"/><use transform="matrix(0.06172839506172839,0,0,0.06172839506172839,15.987654320987653,0)" xlink:href="#ay"/><use transform="matrix(0.06172839506172839,0,0,0.06172839506172839,28.333333333333332,0)" xlink:href="#bE"/><use transform="matrix(0.06172839506172839,0,0,0.06172839506172839,34.50617283950617,0)" xlink:href="#am"/><use transform="matrix(0.06172839506172839,0,0,0.06172839506172839,39.382716049382715,0)" xlink:href="#an"/><use transform="matrix(0.06172839506172839,0,0,0.06172839506172839,51.72839506172839,0)" xlink:href="#ay"/><use transform="matrix(0.06172839506172839,0,0,0.06172839506172839,64.07407407407408,0)" xlink:href="#by"/><use transform="matrix(0.06172839506172839,0,0,0.06172839506172839,82.53086419753086,0)" xlink:href="#ay"/><use transform="matrix(0.06172839506172839,0,0,0.06172839506172839,94.87654320987654,0)" xlink:href="#an"/><use transform="matrix(0.06172839506172839,0,0,0.06172839506172839,107.22222222222223,0)" xlink:href="#as"/></g><path d="M140-251c81 0 123 46 123 126C263-46 219 4 140 4 59 4 17-45 17-125s42-126 123-126zm0 227c63 0 89-41 89-101s-29-99-89-99c-61 0-89 39-89 99S79-25 140-24" id="bF"/><path d="M115-194c53 0 69 39 70 98 0 66-23 100-70 100C84 3 66-7 56-30L54 0H23l1-261h32v101c10-23 28-34 59-34zm-8 174c40 0 45-34 45-75 0-40-5-75-45-74-42 0-51 32-51 76 0 43 10 73 51 73" id="bG"/><path d="M24-231v-30h32v30H24zM-9 49c24 4 33-6 33-30v-209h32V24c2 40-23 58-65 49V49" id="bH"/><g id="T"><use transform="matrix(0.056172839506172835,0,0,0.056172839506172835,0,0)" xlink:href="#bF"/><use transform="matrix(0.056172839506172835,0,0,0.056172839506172835,15.728395061728394,0)" xlink:href="#bG"/><use transform="matrix(0.056172839506172835,0,0,0.056172839506172835,26.962962962962962,0)" xlink:href="#bH"/><use transform="matrix(0.056172839506172835,0,0,0.056172839506172835,31.400617283950616,0)" xlink:href="#aF"/><use transform="matrix(0.056172839506172835,0,0,0.056172839506172835,42.63518518518518,0)" xlink:href="#aR"/><use transform="matrix(0.056172839506172835,0,0,0.056172839506172835,52.74629629629629,0)" xlink:href="#aD"/><use transform="matrix(0.056172839506172835,0,0,0.056172839506172835,58.36358024691358,0)" xlink:href="#aL"/><use transform="matrix(0.056172839506172835,0,0,0.056172839506172835,62.80123456790123,0)" xlink:href="#bB"/><use transform="matrix(0.056172839506172835,0,0,0.056172839506172835,72.91234567901235,0)" xlink:href="#aF"/><use transform="matrix(0.056172839506172835,0,0,0.056172839506172835,84.14691358024692,0)" xlink:href="#aC"/></g><g id="U"><use transform="matrix(0.05,0,0,0.05,0,0)" xlink:href="#bs"/><use transform="matrix(0.05,0,0,0.05,14.950000000000001,0)" xlink:href="#aF"/><use transform="matrix(0.05,0,0,0.05,24.950000000000003,0)" xlink:href="#bq"/><use transform="matrix(0.05,0,0,0.05,34.95,0)" xlink:href="#aL"/><use transform="matrix(0.05,0,0,0.05,38.900000000000006,0)" xlink:href="#aK"/></g><g id="V"><use transform="matrix(0.05,0,0,0.05,0,0)" xlink:href="#bw"/><use transform="matrix(0.05,0,0,0.05,12,0)" xlink:href="#bu"/><use transform="matrix(0.05,0,0,0.05,16.65,0)" xlink:href="#bu"/><use transform="matrix(0.05,0,0,0.05,21.65,0)" xlink:href="#aF"/><use transform="matrix(0.05,0,0,0.05,31.649999999999995,0)" xlink:href="#aR"/><use transform="matrix(0.05,0,0,0.05,40.65,0)" xlink:href="#aD"/><use transform="matrix(0.05,0,0,0.05,45.65,0)" xlink:href="#aL"/><use transform="matrix(0.05,0,0,0.05,49.6,0)" xlink:href="#bB"/><use transform="matrix(0.05,0,0,0.05,58.6,0)" xlink:href="#aF"/><use transform="matrix(0.05,0,0,0.05,68.6,0)" xlink:href="#aJ"/><use transform="matrix(0.05,0,0,0.05,78.6,0)" xlink:href="#aF"/><use transform="matrix(0.05,0,0,0.05,88.6,0)" xlink:href="#aC"/><use transform="matrix(0.05,0,0,0.05,97.6,0)" xlink:href="#aC"/></g><g id="W"><use transform="matrix(0.05,0,0,0.05,0,0)" xlink:href="#aH"/><use transform="matrix(0.05,0,0,0.05,12,0)" xlink:href="#bw"/><use transform="matrix(0.05,0,0,0.05,24,0)" xlink:href="#bF"/></g><path d="M194 0L95-120 63-95V0H30v-248h33v124l119-124h40L117-140 236 0h-42" id="bI"/><path d="M206 0h-36l-40-164L89 0H53L-1-190h32L70-26l43-164h34l41 164 42-164h31" id="bJ"/><g id="X"><use transform="matrix(0.05,0,0,0.05,0,0)" xlink:href="#bI"/><use transform="matrix(0.05,0,0,0.05,12,0)" xlink:href="#aF"/><use transform="matrix(0.05,0,0,0.05,22,0)" xlink:href="#aQ"/><use transform="matrix(0.05,0,0,0.05,31,0)" xlink:href="#bJ"/><use transform="matrix(0.05,0,0,0.05,43.95,0)" xlink:href="#aB"/><use transform="matrix(0.05,0,0,0.05,53.95,0)" xlink:href="#aG"/><use transform="matrix(0.05,0,0,0.05,59.900000000000006,0)" xlink:href="#bq"/></g><g id="Y"><use transform="matrix(0.05,0,0,0.05,0,0)" xlink:href="#aH"/><use transform="matrix(0.05,0,0,0.05,12,0)" xlink:href="#aF"/><use transform="matrix(0.05,0,0,0.05,22,0)" xlink:href="#aJ"/><use transform="matrix(0.05,0,0,0.05,32,0)" xlink:href="#aD"/><use transform="matrix(0.05,0,0,0.05,37,0)" xlink:href="#aL"/><use transform="matrix(0.05,0,0,0.05,40.95,0)" xlink:href="#aE"/><use transform="matrix(0.05,0,0,0.05,55.900000000000006,0)" xlink:href="#aF"/><use transform="matrix(0.05,0,0,0.05,65.9,0)" xlink:href="#aJ"/><use transform="matrix(0.05,0,0,0.05,75.9,0)" xlink:href="#aD"/></g><g id="Z"><use transform="matrix(0.05,0,0,0.05,0,0)" xlink:href="#aO"/><use transform="matrix(0.05,0,0,0.05,12,0)" xlink:href="#aJ"/><use transform="matrix(0.05,0,0,0.05,22,0)" xlink:href="#aK"/><use transform="matrix(0.05,0,0,0.05,32,0)" xlink:href="#aP"/><use transform="matrix(0.05,0,0,0.05,35.95,0)" xlink:href="#aQ"/><use transform="matrix(0.05,0,0,0.05,44.95,0)" xlink:href="#aC"/><use transform="matrix(0.05,0,0,0.05,53.95,0)" xlink:href="#aL"/><use transform="matrix(0.05,0,0,0.05,57.900000000000006,0)" xlink:href="#aC"/></g><path d="M143 4C61 4 22-44 18-125c-5-107 100-154 193-111 17 8 29 25 37 43l-32 9c-13-25-37-40-76-40-61 0-88 39-88 99 0 61 29 100 91 101 35 0 62-11 79-27v-45h-74v-28h105v86C228-13 192 4 143 4" id="bK"/><g id="aa"><use transform="matrix(0.056172839506172835,0,0,0.056172839506172835,0,0)" xlink:href="#bK"/><use transform="matrix(0.056172839506172835,0,0,0.056172839506172835,15.728395061728394,0)" xlink:href="#aK"/><use transform="matrix(0.056172839506172835,0,0,0.056172839506172835,26.962962962962962,0)" xlink:href="#aD"/><use transform="matrix(0.056172839506172835,0,0,0.056172839506172835,32.58024691358025,0)" xlink:href="#aM"/><use transform="matrix(0.056172839506172835,0,0,0.056172839506172835,43.81481481481481,0)" xlink:href="#aF"/><use transform="matrix(0.056172839506172835,0,0,0.056172839506172835,55.04938271604938,0)" xlink:href="#aG"/></g><g id="ab"><use transform="matrix(0.056172839506172835,0,0,0.056172839506172835,0,0)" xlink:href="#aA"/><use transform="matrix(0.056172839506172835,0,0,0.056172839506172835,14.548765432098763,0)" xlink:href="#aB"/><use transform="matrix(0.056172839506172835,0,0,0.056172839506172835,25.78333333333333,0)" xlink:href="#aJ"/><use transform="matrix(0.056172839506172835,0,0,0.056172839506172835,37.0179012345679,0)" xlink:href="#aD"/><use transform="matrix(0.056172839506172835,0,0,0.056172839506172835,42.635185185185186,0)" xlink:href="#aF"/><use transform="matrix(0.056172839506172835,0,0,0.056172839506172835,53.86975308641975,0)" xlink:href="#aJ"/><use transform="matrix(0.056172839506172835,0,0,0.056172839506172835,65.10432098765432,0)" xlink:href="#aD"/><use transform="matrix(0.056172839506172835,0,0,0.056172839506172835,70.7216049382716,0)" xlink:href="#aC"/></g><g id="ac"><use transform="matrix(0.056172839506172835,0,0,0.056172839506172835,0,0)" xlink:href="#bC"/><use transform="matrix(0.056172839506172835,0,0,0.056172839506172835,5.617283950617283,0)" xlink:href="#aJ"/><use transform="matrix(0.056172839506172835,0,0,0.056172839506172835,16.851851851851848,0)" xlink:href="#aD"/><use transform="matrix(0.056172839506172835,0,0,0.056172839506172835,22.469135802469133,0)" xlink:href="#aF"/><use transform="matrix(0.056172839506172835,0,0,0.056172839506172835,33.703703703703695,0)" xlink:href="#aG"/><use transform="matrix(0.056172839506172835,0,0,0.056172839506172835,40.38827160493826,0)" xlink:href="#bD"/><use transform="matrix(0.056172839506172835,0,0,0.056172839506172835,51.622839506172824,0)" xlink:href="#aG"/><use transform="matrix(0.056172839506172835,0,0,0.056172839506172835,58.30740740740739,0)" xlink:href="#aF"/><use transform="matrix(0.056172839506172835,0,0,0.056172839506172835,69.54197530864195,0)" xlink:href="#aD"/></g><g id="ad"><use transform="matrix(0.056172839506172835,0,0,0.056172839506172835,0,0)" xlink:href="#br"/><use transform="matrix(0.056172839506172835,0,0,0.056172839506172835,14.548765432098763,0)" xlink:href="#aK"/><use transform="matrix(0.056172839506172835,0,0,0.056172839506172835,25.78333333333333,0)" xlink:href="#aD"/><use transform="matrix(0.056172839506172835,0,0,0.056172839506172835,31.400617283950616,0)" xlink:href="#aK"/></g><path fill="#3a414a" d="M205 0l-28-72H64L36 0H1l101-248h38L239 0h-34zm-38-99l-47-123c-12 45-31 82-46 123h93" id="bL"/><g id="ae"><use transform="matrix(0.06172839506172839,0,0,0.06172839506172839,0,0)" xlink:href="#bL"/><use transform="matrix(0.06172839506172839,0,0,0.06172839506172839,14.814814814814813,0)" xlink:href="#an"/><use transform="matrix(0.06172839506172839,0,0,0.06172839506172839,27.160493827160494,0)" xlink:href="#ai"/><use transform="matrix(0.06172839506172839,0,0,0.06172839506172839,39.50617283950617,0)" xlink:href="#ax"/><use transform="matrix(0.06172839506172839,0,0,0.06172839506172839,44.382716049382715,0)" xlink:href="#aU"/><use transform="matrix(0.06172839506172839,0,0,0.06172839506172839,55.49382716049382,0)" xlink:href="#aj"/><use transform="matrix(0.06172839506172839,0,0,0.06172839506172839,66.60493827160494,0)" xlink:href="#ay"/></g><path fill="#3a414a" d="M30 0v-248h187v28H63v79h144v27H63v87h162V0H30" id="bM"/><g id="af"><use transform="matrix(0.06172839506172839,0,0,0.06172839506172839,0,0)" xlink:href="#bM"/><use transform="matrix(0.06172839506172839,0,0,0.06172839506172839,14.814814814814813,0)" xlink:href="#au"/><use transform="matrix(0.06172839506172839,0,0,0.06172839506172839,25.925925925925924,0)" xlink:href="#ai"/><use transform="matrix(0.06172839506172839,0,0,0.06172839506172839,38.2716049382716,0)" xlink:href="#ax"/><use transform="matrix(0.06172839506172839,0,0,0.06172839506172839,43.148148148148145,0)" xlink:href="#aV"/><use transform="matrix(0.06172839506172839,0,0,0.06172839506172839,55.49382716049382,0)" xlink:href="#ai"/><use transform="matrix(0.06172839506172839,0,0,0.06172839506172839,67.8395061728395,0)" xlink:href="#as"/><use transform="matrix(0.06172839506172839,0,0,0.06172839506172839,74.01234567901234,0)" xlink:href="#ay"/></g><g id="ag"><use transform="matrix(0.06172839506172839,0,0,0.06172839506172839,0,0)" xlink:href="#ap"/><use transform="matrix(0.06172839506172839,0,0,0.06172839506172839,15.987654320987653,0)" xlink:href="#ay"/><use transform="matrix(0.06172839506172839,0,0,0.06172839506172839,28.333333333333332,0)" xlink:href="#ba"/><use transform="matrix(0.06172839506172839,0,0,0.06172839506172839,40.67901234567901,0)" xlink:href="#aT"/><use transform="matrix(0.06172839506172839,0,0,0.06172839506172839,53.02469135802469,0)" xlink:href="#aW"/><use transform="matrix(0.06172839506172839,0,0,0.06172839506172839,60.37037037037037,0)" xlink:href="#as"/></g></defs></g></svg>